<?xml version="1.0" encoding="UTF-8"?><svg id="Camada_1" xmlns="http://www.w3.org/2000/svg" viewBox="0 0 250 100"><path d="m116.68,68.91l3.43,3.1,2.48-.02,3.43-3.05-1.87-1.46.06-.9.9-.2,2.27,1.02.77-.12,3.8-1.52.87.26,1.62.41,19.33-.05,3.9.08,5.6.25.9,1.32-1.08,3.56-.48.32-16.77-.02-2.49-.05-.46-.45v-.74s-1.35-1.36-1.35-1.36l-7.67-.1-1.12.45-5.27,4.49-2.63,2.23,3.28,3.09,2.48,2.34,2.55,2.59,2.36,3.68-.83,2.41-2.32-.13-2.72-2.46-7.65-7.79-.6-.56-6.99,6.98-4.15,3.9-2.3.04-.77-2.41,2.18-3.45,4.7-4.71,3.59-3.29-.07-.47-3.63-2.96-4.08-3.57-.83-.31-7.81.02-1.34,1.09-.11.37-1.4,1.21-12.99-.06-4.91.08-1.04-.7-.94-3.3.97-1.28,18.12-.32,11.25.04.77-.22,3.29.03,1.76,1.15.53.04,1.99-.93,1.28.04-.21,1.44-1.58.94h0Zm15.52.69l-.23-.03-.06.3-.8.33-7.44,2.73-1.33.65v.54s1.76,1.62,1.76,1.62h.52s2.77-2.17,2.77-2.17l4.51-3.7.29-.27.19-.32.91-1.32-.73-1.31.4,1.69-.58.93-.18.32h0Zm-22.1-2.82l-.49.48.48-.48.65-.41-.64.41h0Zm14.52.8l1.81.91-1.72-.97-.11-.6.67.08,1.17.57-1.1-.73-.8-.05.08.78h0Zm2.91,17.17l-.67-.33.68.31.08.29,2.55,2.67.5-.4,2.81-.63.16-.57-.75-.85-2.38-.94-2.99.45h0Zm-16.06-14.6l-.08.15.17.19,4.84,3.89,4.3,3.6,2.33,1.39,3.81.28-.49-.54-4.23-3.87-2.88-2.16-3-1.13-4.77-1.78h0Zm51.63.21l-1.17.44-1.44-.18-6.84-.13-2.42-.02-7.22.29.92.61-1,.08v.09h18.02s1.15-1.19,1.15-1.19h0Zm-64.85.57l-.45-.21-3.23-.2-13.07.22-1.31.11-.84-.97.46,1.25.62.43h17.54s.28-.63.28-.63h0Zm21.59,8.97l-2.92.16-2.54.9-.22.15-2.51,2.39,3.82.57.51-.1,1.51-1.6,2.34-2.48h0Zm-19.52-11.9l-.95,1.53-.12,1.65-.08.22.33-.19v-.61s1.67-1.63,1.67-1.63l5.05-.04h3.01s0-.23,0-.23h-1.51l1.35-2-26.85.26,20.08-.03-2.21,1.74.22-.67h0Zm30.75,15.48l-3.2-2.97-.56-.33-3.98-.28-.35.1.24.35,3.06,3.13,1.32.52,3.47-.53h0Zm2.5-14.75l.03.11h.26s8.2.14,8.2.14l.82.49.3,1,.29,1.18-1.16-3.91.3.91-1.59-.67-.37-.62.22-.46,3.68-.03,9.96-.02.91-.09h-21.88l1.35,1.61-.27.35h-1.06Zm-24.83,17.86l1.07.19,2.61.74.38-.08,2.04-2.21-.2-.49-2.77-.51-1.03.07-2.11,2.29h0Zm7.18-7.04l4.27-.31.45-.14-.23-.44-1.47-1.35-.63.02-2.4,2.21h0Zm-33.45-9.58l14.69-.07-14.69.07h0Zm63.1-.01l14.93.27v-.27s-14.93,0-14.93,0h0Zm15.05-2.41l-14.75-.15,14.75.15h0Zm-64.51-.04h-14.12,14.12Zm-9.17,1.97h8.65-8.65Zm68.93.1v-.07s-6.42,0-6.42,0v.07s6.42,0,6.42,0h0Zm-23.71,19.89l2.72-.22-2.72.22h0Zm25.7-22.57h2.85-2.85Zm-39.67-.09l-2.7.93,2.7-.93h0Zm45.28.44v-.23h-2.29l1.15.2,1.14.02h0Zm-84.08-.25v.12s2.19,0,2.19,0v-.12s-2.19,0-2.19,0h0Zm32.27,21.38l-1.22,1,1.22-1h0Z" fill="#fdecb9"/><polygon points="111.66 88.39 110.44 89.39 111.66 88.39 111.66 88.39" fill="#1c1b1c"/><polyline points="132.38 69.28 132.38 69.28 132.19 69.6 132.2 69.6" fill="#1c1b1c"/><polygon points="107.86 66.91 107.04 68.39 106.09 68.7 106.05 68.35 106.81 67.2 107.86 66.91 107.86 66.91" fill="#fdecb9"/><polygon points="102.48 68.71 103.93 66.84 102.48 68.71 102.48 68.71" fill="#fdecb9"/><polygon points="134.8 66.94 135.85 67.09 136.7 68.49 136.56 68.73 135.74 68.49 134.8 66.94 134.8 66.94" fill="#fdecb9"/><polygon points="139 66.98 139.25 67.14 140.1 68.46 140.1 68.72 139.86 68.7 138.87 67.16 139 66.98 139 66.98" fill="#fdecb9"/><text transform="translate(42.81 39.05)" fill="#feebb8" font-family="Impact, Impact" font-size="35.46"><tspan x="0" y="0">BARBEARIA</tspan></text><line x1="39.13" y1="53.55" x2="87.3" y2="53.55" fill="none" stroke="#feebb8" stroke-miterlimit="10" stroke-width=".48"/><line x1="155.37" y1="53.55" x2="203.54" y2="53.55" fill="none" stroke="#feebb8" stroke-miterlimit="10" stroke-width=".48"/><text transform="translate(100.75 62.24)" fill="#feebb8" font-family="Lato-Light, Lato" font-size="22.04" font-weight="300" letter-spacing=".23em"><tspan x="0" y="0">PH</tspan></text></svg>