<?xml version="1.0" encoding="UTF-8"?><svg id="Camada_1" xmlns="http://www.w3.org/2000/svg" viewBox="0 0 160 160"><path d="m39.78,102.66s-.06.03-.09.05c0,.02.02.04.03.04.05.01.09,0,.09-.07.05,0,.07-.02.08-.07.47-.37.85-.83,1.22-1.29,1.13-1.39,2.1-2.88,2.9-4.48.52-1.05.99-2.13,1.35-3.25-.38-.1-.75-.11-1.09-.24-.11-.04-.19-.05-.22-.19-.19-.94-.36-1.89-.59-2.82-.14-.57-.09-1.21-.65-1.65-.34-.27-.66-.48-1.1-.34-.37.12-.73.7-.72,1.12,0,.31-.09.58-.27.83-.33.47-.75.86-1.21,1.18-1.64,1.14-3.43,2.02-5.26,2.83-.58.25-1.12.57-1.58,1.03-.54.55-.87,1.22-1.07,1.94-.07.27-.2.41-.44.52-.2.09-.43.15-.6.37.33,0,.62,0,.91,0,.16,0,.23-.02.29-.21.21-.74.54-1.43.99-2.05.13-.18.2-.43.42-.51.52-.18,1.01-.41,1.5-.65,1.86-.9,3.75-1.79,5.35-3.13.64-.54,1.38-1.04,1.36-2.07,0-.51.2-.63.57-.58.51.08.84.8.65,1.19-.15.31-.36.57-.6.81-.3.31-.58.64-.9.93-.81.74-1.66,1.44-2.55,2.09.93-.31,1.7-.92,2.59-1.32-.63.57-1.26,1.15-1.9,1.72,1.01-.46,1.87-1.14,2.81-1.69-.64.8-1.32,1.54-2.07,2.23.57-.16.95-.65,1.47-.88.02.03.04.05.06.08-.42.4-.84.8-1.26,1.2.02.02.04.05.06.07.91-.44,1.64-1.14,2.46-1.7-.73.99-1.58,1.86-2.49,2.68.99-.39,1.68-1.19,2.51-1.79-.44.76-1,1.42-1.59,2.06-.58.63-1.15,1.26-1.78,1.84,1.8-1.11,3.28-2.56,4.56-4.24.03.05.06.07.06.08-.07.32-.12.65-.22.97-.61,1.78-1.49,3.43-2.49,5.01-.48.76-.99,1.5-1.49,2.24l-.05.08Zm-1.01-26.73c-.29.19-.47.49-.75.78.27-1.42,1.57-2.61,3.2-2.25.53.12.97.38,1.23.92.37.79.24,1.56-.02,2.32-.16.46-.39.91-.59,1.36-.21.46-.4.95-.57,1.44-.39,1.13-.62,2.27-.4,3.48.25-1.19.84-2.22,1.45-3.25.63-1.06,1.37-2.06,1.86-3.2.56-1.31.59-2.59-.29-3.81-.09-.13-.29-.21-.26-.43.86.38,1.39,1.37,1.42,2.04,0,.2,0,.39.14.59.28-.46.58-.89.77-1.38.56-1.39.59-2.76-.09-4.11-.08-.17-.11-.32-.06-.51.34-1.33.64-2.65.49-4.05-.11-1.03-.38-1.99-.91-2.86-.11-.19-.21-.43-.49-.52.55,1.25.95,2.49.55,3.89-.63-4.21-4.09-5.66-6.5-5.9.89.46,1.67.94,2.34,1.59.69.66,1.22,1.43,1.62,2.36.05-.37-.05-.66-.12-.96-.07-.31-.25-.57-.37-.89,1.28.88,1.91,3.61,1.31,5.32-.08.01-.07-.05-.08-.09-.13-.77-.44-1.47-.83-2.13-.47-.81-1.02-1.53-1.8-2.07-1.3-.89-2.78-1.41-4.2-2.05-1.12-.51-2.22-1.05-3.07-1.98-.13-.14-.2-.35-.46-.44.44,1.23,1.28,2.05,2.32,2.7-1.34-.28-2.54-.85-3.61-1.69-1.1-.86-1.85-1.98-2.29-3.32-.02.23-.03.46.02.66.46,1.8,1.48,3.15,3.16,3.97.69.34,1.41.62,2.09.98,1.51.81,3.15,1.49,3.74,3.34,0,.03.06.06.08.06.04,0,.1-.05.08-.1-.1-.19-.01-.4-.06-.6-.1-.44-.32-.83-.5-1.24,1.18,1.12,1.82,2.51,2.03,4.12.15-.58.14-1.16.07-1.72-.06-.55-.2-1.1-.51-1.59.56.48.92,1.08,1.12,1.78.17.6.24,1.21.15,1.83-.01.1-.06.23.15.26.6.09,1.17.28,1.73.51.4.17.78.37,1.07.71-1.78-.42-3.57-.55-5.39-.36.36-.21.77-.21,1.14-.33-2.22-.14-4.02.83-5.7,2.15.37-.59.84-1.08,1.36-1.51.41-.33.84-.64,1.33-.86.42-.18.86-.3,1.31-.4.13-.03.23-.07.23-.22,0-.72.04-1.45-.23-2.14-.49-1.25-1.39-2.13-2.56-2.74-.24-.12-.46-.32-.81-.29.85.59,1.65,1.46,1.66,1.83-.93-1.03-2.04-1.79-3.26-2.39-.68-.33-1.41-.55-2.08-.89-.77-.4-1.52-.8-1.99-1.58-.07-.11-.09-.27-.32-.39.2.91.53,1.65,1.11,2.28.58.63,1.31,1.04,2.02,1.49-1.05-.2-1.94-.71-2.65-1.49-.72-.78-1.06-1.74-1.19-2.79-.13.07-.21.15-.2.3.02.73-.05,1.47.15,2.19.45,1.63,1.43,2.78,2.96,3.51.79.37,1.6.63,2.44.84-2.04-.09-4.01-.35-5.39-2.17-.21.97-.04,1.84.44,2.66.47.8,1.22,1.31,2.04,1.75-.63.22-2.82-1-3.44-1.79-.85-1.09-1.28-2.32-1.4-3.77-.26.75-.28,1.43-.29,2.12-.34-.75-.48-1.53-.34-2.35.22-1.3.93-2.32,1.87-3.21-1.17.75-2.15,1.68-2.73,2.97-.59,1.32-.55,2.66-.03,4-.93-1.38-1.25-2.83-.58-4.42-.42.47-.58,1.04-.8,1.59.15-2.45,1.59-4.02,3.56-5.24-2.16.38-3.98,1.34-5.31,3.11-.83,1.1-1.46,3.31-1.22,4.25.26-.93.52-1.78,1.16-2.55-1.06,3.95.8,6.41,3.93,8.27-.65.06-2.43-.5-3.7-1.61-1.93-1.68-2.27-3.88-1.81-6.32-.09.06-.14.08-.15.1-.39,1.09-.58,2.23-.44,3.37.2,1.7,1.09,2.98,2.64,3.79.91.47,1.86.79,2.87.95-.92,1.22-1.15,2.26-1,2.51.39-.91.71-1.39,1.37-1.98.25-.23.48-.47.89-.35.21.06.45.01.74.01-1.6-.97-2.88-2.12-3.62-3.8.85.97,1.77,1.8,2.96,2.36,1.06.5,2.62.72,3.75.44-.84-.22-1.66-.45-2.42-.83-.76-.39-1.45-.88-2.05-1.52,2.93,1.67,5.98,2.21,9.23.97-.68.65-1.12,1.42-1.49,2.24.59-.57,1.05-1.3,1.82-1.66-.82.92-1.34,1.81-1.44,2.52,2.63-.53,5.7.03,6.35.67-.68-.16-1.33-.31-2-.37-.76-.07-1.51-.1-2.27,0-.28.04-.28.1-.12.33.49.71.9,1.46,1.15,2.24-2.05,0-4.1,0-6.15,0-.06,0-.12,0-.18-.03-.76-.29-1.54-.42-2.35-.52-1.06-.12-2.03.05-2.9.62-.32.21-.63.22-.95.18-.19-.03-.36-.16-.55-.23-.77-.27-.99-.28-1.51.26-.14.15-.13.34-.19.51-.28.81-.14,1.57.36,2.27.37.52.92.7,1.51.78.25.03.22.11.13.27-.12.2-.23.4-.37.65.34-.14.51-.38.67-.65.4-.71.44-1.48.43-2.26,0-.16-.09-.38.21-.41.3-.02.34.18.36.39.09.69.29,1.35.63,1.96.37.66.91,1.14,1.66,1.22,1.11.12,1.94-.46,2.59-1.3.46-.6.65-1.3.59-2.06-.02-.19.02-.29.25-.28.29.02.58-.04.87-.04,1.7-.03,3.4-.03,5.1-.04.1,0,.19-.01.21.13.06.63.11,1.26.01,1.9-.08.53-.21,1.04-.4,1.55.43-.39.55-.97.84-1.45.09.92.1,1.81-.26,2.66-.52,1.25-1.54,1.52-2.72,1.43-.47-.04-.89-.23-1.34-.31-.05-.1-.12-.09-.2-.04.05.03.1.06.15.09.32.37.78.55,1.17.82-.9-.08-1.55-.56-2.05-1.34-.02.43.17.98.46,1.36.54.69.45,1.75-.69,2.01-.08.02-.17.02-.33.04.94.42,1.65.98,1.98,1.9q-.71-.68-.98-.72c.85.91,1.16,2,.75,2.76-.09-.63-.18-1.21-.53-1.74-.35-.53-.78-.91-1.39-1.09.14.14.28.29.42.43-.02.03-.03.07-.05.1-.88-.66-1.84-1.07-3.02-1.09,1.33.82,1.16,1.91.72,3.07.39-.4.51-.93.72-1.42.11,1.42-1.08,2.6-1.97,2.69.59-.79,1.1-1.61.96-2.71-.09.11,0,.29-.18.31-.04-.59-.16-1.14-.7-1.48.14.62.27,1.22-.33,1.67-.48.36-1.4.5-1.7.3.36-.08.7-.21,1.03-.38.11-.06.22-.13.22-.26,0-.16-.13-.16-.25-.2-.09-.03-.18-.05-.27-.06-.4-.05-.79-.15-1.1-.43-.16-.15-.36-.24-.56-.31-.69-.24-1.36-.11-1.68.61-.03.06-.06.06-.13.05-.09-.38.13-.65.35-.88.12-.12.08-.14,0-.22-.24-.22-.43-.48-.56-.78-.25-.57.14-1.54.73-1.65.63-.12,1.25-.04,1.78.43.75.67,1.59,1.14,2.64,1.07.49-.03.99-.08,1.47-.44h-.99c.7-.23,1.44-.31,1.98-.89.53-.57.78-1.55.5-1.99-.43,1.51-2.13,1.99-2.94,1.6.57-.05,1.09-.2,1.62-.65-1.27.21-2.26-.12-3.1-.96.11.23.22.46.34.71-.47-.09-.93-.62-1.01-1.14-.13-.82-.52-1.25-1.3-1.07.24.13.48.23.53.53.01.07.07.14,0,.2-.08.08-.15,0-.22-.03-.5-.24-1-.35-1.53-.07-.02-.13.18-.17.09-.28-.26-.08-.33.36-.58.21-.2-.12-.28-.33-.29-.59-.25.34-.25.46-.02.86.05.09.16.16.09.29-.07.12-.11.22.1.24.11.01.08.11.06.17-.15.55-.31.83-.9,1-.25.07-.51,0-.77.1.27.24.56.34.88.37-.5.19-.95.14-1.34-.29.1.71.75,1.28,1.42,1.34.24.02.36.1.36.37,0,.74-.06,1.48-.22,2.21-.24,1.12-.71,2.1-1.72,2.75.69-.07,1.25-.41,1.69-1.01-.03.97-.76,1.89-1.85,2.37.56.22,1.06.02,1.59-.16-1,2.42.33,4.78,3.06,6.09-.6-.76-.99-1.55-1.21-2.4-.27-1.02-.26-2.14.12-2.54,0,.29,0,.57,0,.85.03.76.22,1.47.62,2.13.7,1.14,1.79,1.71,3,2.09.13.04.34.09.43-.08.4-.74.65-1.52.56-2.39-.05-.55-.15-1.08-.33-1.6.46.55.74,1.18.8,1.89.06.7,0,1.4-.4,2.04,3.05-1.16,4.72-3.45,5.42-6.56.12.08.09.17.09.24-.05.96-.25,1.9-.62,2.89.76-.49,1.38-1.01,1.92-1.62,1.48-1.67,2.25-3.61,2.18-5.88.36,1.01.21,2.04.24,3.09.22-.2.32-.45.43-.68.75-1.62.75-3.32.4-5.03-.21-1.04-.52-2.08-.59-3.14-.09-1.53-.19-3.09.57-4.52l.06-.06s-.06,0-.09,0Zm-10.5,22.49c-.39-.16-.77-.26-1.17-.34-.64-.12-1.28-.24-1.92-.36-.2-.04-.24.03-.24.22-.01.68.06,1.34.16,2.01.12.83.3,1.65.55,2.46.04.12.06.23.23.2.66-.13,1.32-.28,1.93-.59.86-.44,1.62-1.02,2.24-1.77.09-.11.2-.18.36-.21.46-.09.91-.04,1.37-.06.11,0,.17.04.25.1.5.38.99.78,1.51,1.14,1.05.72,2.12,1.4,3.3,1.9.11.05.2.15.33-.04.33-.5.59-1.02.78-1.59.36-1.05.39-2.14.36-3.23-.02-.94-.18-1.85-.39-2.76-.04-.17-.1-.27-.33-.26-1.16.03-2.26.28-3.25.89-.71.43-1.51,1.26-1.7,1.92,1.07-.81,2.21-1.38,3.49-1.62-.81.48-1.59.97-2.32,1.58.97-.33,1.96-.45,2.97-.41-.48.16-.98.24-1.47.4-.49.16-.99.3-1.45.54-1.11.57-2.26.87-3.51.72-.06,0-.12,0-.18,0-.07,0-.16.02-.22-.01-.65-.41-1.41-.48-2.14-.68.1-.2.29-.05.45-.14Z" fill="#1c1b1c"/><path d="m32.74,82.48c.45.08.88.28,1.34.31,1.18.09,2.2-.18,2.72-1.43.35-.85.34-1.75.26-2.66-.29.48-.41,1.06-.84,1.45.19-.5.33-1.01.4-1.55.09-.64.04-1.27-.01-1.9-.01-.15-.11-.13-.21-.13-1.7,0-3.4,0-5.1.04-.29,0-.58.06-.87.04-.23-.01-.26.08-.25.28.06.76-.13,1.46-.59,2.06-.65.84-1.47,1.42-2.59,1.3-.75-.08-1.3-.56-1.66-1.22-.34-.61-.54-1.26-.63-1.96-.03-.21-.07-.41-.36-.39-.3.02-.22.24-.21.41,0,.78-.03,1.55-.43,2.26-.15.27-.32.51-.67.65.14-.25.26-.45.37-.65.09-.16.11-.23-.13-.27-.59-.08-1.14-.26-1.51-.78-.49-.7-.64-1.46-.36-2.27.06-.17.04-.36.19-.51.52-.54.74-.53,1.51-.26.19.07.36.2.55.23.33.04.63.04.95-.18.87-.58,1.84-.75,2.9-.62.81.09,1.59.23,2.35.52.06.02.12.02.18.03,2.05,0,4.1,0,6.15,0-.25-.78-.66-1.53-1.15-2.24-.16-.23-.15-.29.12-.33.76-.11,1.51-.08,2.27,0,.67.06,1.32.21,2,.37-.65-.64-3.72-1.2-6.35-.67.1-.71.62-1.6,1.44-2.52-.78.36-1.23,1.08-1.82,1.66.37-.82.81-1.58,1.49-2.24-3.25,1.24-6.3.7-9.23-.97.6.64,1.29,1.13,2.05,1.52.76.39,1.58.61,2.42.83-1.12.29-2.68.06-3.75-.44-1.18-.56-2.11-1.39-2.96-2.36.74,1.68,2.02,2.83,3.62,3.8-.29,0-.53.05-.74-.01-.41-.12-.64.12-.89.35-.66.6-.98,1.07-1.37,1.98-.16-.25.08-1.3,1-2.51-1.02-.16-1.97-.48-2.87-.95-1.55-.81-2.44-2.09-2.64-3.79-.14-1.14.05-2.28.44-3.37,0-.03.06-.04.15-.1-.46,2.44-.12,4.64,1.81,6.32,1.27,1.11,3.05,1.66,3.7,1.61-3.12-1.86-4.98-4.33-3.93-8.27-.64.77-.9,1.62-1.16,2.55-.24-.94.4-3.15,1.22-4.25,1.33-1.77,3.14-2.73,5.31-3.11-1.97,1.22-3.41,2.79-3.56,5.24.22-.55.38-1.13.8-1.59-.68,1.59-.35,3.04.58,4.42-.52-1.34-.57-2.68.03-4,.58-1.29,1.56-2.22,2.73-2.97-.94.89-1.64,1.91-1.87,3.21-.14.82,0,1.59.34,2.35,0-.69.03-1.37.29-2.12.12,1.46.54,2.69,1.4,3.77.62.79,2.81,2.02,3.44,1.79-.82-.44-1.56-.95-2.04-1.75-.48-.82-.65-1.69-.44-2.66,1.39,1.82,3.35,2.08,5.39,2.17-.84-.21-1.65-.47-2.44-.84-1.53-.73-2.51-1.88-2.96-3.51-.2-.72-.13-1.46-.15-2.19,0-.15.07-.22.2-.3.13,1.05.47,2.01,1.19,2.79.72.78,1.6,1.29,2.65,1.49-.71-.45-1.44-.86-2.02-1.49-.58-.63-.91-1.37-1.11-2.28.23.12.25.28.32.39.46.78,1.22,1.18,1.99,1.58.67.35,1.4.56,2.08.89,1.22.59,2.33,1.35,3.26,2.39-.01-.37-.81-1.25-1.66-1.83.35-.03.57.17.81.29,1.17.62,2.07,1.49,2.56,2.74.27.69.24,1.41.23,2.14,0,.16-.09.2-.23.22-.45.09-.89.21-1.31.4-.49.21-.92.53-1.33.86-.52.42-.99.92-1.36,1.51,1.68-1.32,3.48-2.29,5.7-2.15-.38.12-.79.13-1.14.33,1.82-.19,3.61-.06,5.39.36-.29-.35-.67-.55-1.07-.71-.55-.23-1.13-.42-1.73-.51-.21-.03-.16-.16-.15-.26.09-.62.02-1.24-.15-1.83-.2-.7-.56-1.3-1.12-1.78.31.49.44,1.04.51,1.59.07.56.08,1.15-.07,1.72-.21-1.61-.86-2.99-2.03-4.12.18.41.39.8.5,1.24.05.2-.03.41.06.6.03.05-.03.09-.08.1-.02,0-.07-.03-.08-.06-.59-1.85-2.22-2.53-3.74-3.34-.68-.36-1.4-.64-2.09-.98-1.68-.82-2.7-2.18-3.16-3.97-.05-.21-.04-.43-.02-.66.44,1.34,1.19,2.45,2.29,3.32,1.07.84,2.27,1.41,3.61,1.69-1.04-.66-1.88-1.47-2.32-2.7.26.09.33.3.46.44.85.93,1.95,1.47,3.07,1.98,1.42.64,2.9,1.16,4.2,2.05.78.54,1.34,1.26,1.8,2.07.39.67.69,1.37.83,2.13,0,.04,0,.1.08.09.6-1.71-.03-4.44-1.31-5.32.12.32.29.59.37.89.07.3.16.59.12.96-.41-.93-.93-1.69-1.62-2.36-.67-.65-1.46-1.13-2.34-1.59,2.41.24,5.87,1.69,6.5,5.9.41-1.4,0-2.64-.55-3.89.29.1.38.34.49.52.53.88.8,1.83.91,2.86.14,1.4-.16,2.72-.49,4.05-.05.19-.02.35.06.51.68,1.36.65,2.73.09,4.11-.2.49-.49.92-.77,1.38-.15-.19-.13-.39-.14-.59-.03-.67-.56-1.66-1.42-2.04-.03.22.17.3.26.43.87,1.21.85,2.49.29,3.81-.49,1.14-1.23,2.14-1.86,3.2-.61,1.03-1.2,2.06-1.45,3.25-.22-1.2,0-2.34.4-3.48.17-.49.36-.98.57-1.44.2-.45.43-.9.59-1.36.26-.75.39-1.53.02-2.32-.26-.54-.7-.8-1.23-.92-1.62-.36-2.92.83-3.2,2.25.28-.3.46-.59.75-.78,0,.02.02.04.03.06-.76,1.43-.67,2.99-.57,4.52.06,1.06.37,2.1.59,3.14.35,1.71.35,3.4-.4,5.03-.1.23-.2.48-.43.68-.03-1.05.12-2.08-.24-3.09.07,2.26-.7,4.21-2.18,5.88-.54.61-1.15,1.13-1.92,1.62.37-.99.56-1.93.62-2.89,0-.07.03-.17-.09-.24-.69,3.11-2.37,5.4-5.42,6.56.39-.63.46-1.33.4-2.04-.06-.7-.35-1.34-.8-1.89.18.52.28,1.05.33,1.6.08.86-.16,1.65-.56,2.39-.09.17-.3.13-.43.08-1.22-.39-2.3-.96-3-2.09-.4-.66-.6-1.36-.62-2.13-.01-.28,0-.56,0-.85-.38.4-.4,1.52-.12,2.54.23.84.62,1.63,1.21,2.4-2.72-1.3-4.06-3.66-3.06-6.09-.53.18-1.03.38-1.59.16,1.09-.48,1.82-1.4,1.85-2.37-.45.6-1,.94-1.69,1.01,1.02-.65,1.48-1.64,1.72-2.75.16-.72.22-1.46.22-2.21,0-.28-.12-.35-.36-.37-.67-.05-1.33-.63-1.42-1.34.4.43.85.48,1.34.29-.32-.03-.61-.13-.88-.37.26-.1.52-.03.77-.1.58-.17.74-.45.9-1,.02-.06.05-.16-.06-.17-.2-.02-.17-.12-.1-.24.07-.12-.03-.19-.09-.29-.24-.4-.24-.52.02-.86.01.26.1.47.29.59.26.15.32-.29.58-.21.09.11-.1.15-.09.28.53-.29,1.04-.17,1.53.07.08.04.15.11.22.03.06-.06,0-.13,0-.2-.05-.3-.29-.41-.53-.53.78-.17,1.17.25,1.3,1.07.08.52.54,1.06,1.01,1.14-.12-.25-.23-.48-.34-.71.84.84,1.83,1.17,3.1.96-.53.45-1.05.6-1.62.65.8.39,2.51-.09,2.94-1.6.29.44.03,1.43-.5,1.99-.54.58-1.28.66-1.98.89h.99c-.48.36-.98.41-1.47.44-1.04.07-1.89-.4-2.64-1.07-.53-.47-1.15-.55-1.78-.43-.59.11-.98,1.08-.73,1.65.13.3.32.56.56.78.08.07.11.1,0,.22-.22.23-.45.5-.35.88.06,0,.1,0,.13-.05.32-.72.99-.85,1.68-.61.2.07.39.17.56.31.31.28.7.39,1.1.43.1.01.18.03.27.06.12.04.25.04.25.2,0,.13-.11.2-.22.26-.33.17-.67.3-1.03.38.3.21,1.22.06,1.7-.3.6-.45.47-1.05.33-1.67.53.34.66.89.7,1.48.17-.02.09-.2.18-.31.13,1.1-.37,1.92-.96,2.71.89-.08,2.07-1.26,1.97-2.69-.21.49-.32,1.02-.72,1.42.44-1.16.61-2.25-.72-3.07,1.18.02,2.15.42,3.02,1.09.02-.03.03-.07.05-.1-.14-.14-.28-.29-.42-.43.61.18,1.04.56,1.39,1.09.35.53.43,1.12.53,1.74.41-.75.1-1.85-.75-2.76q.27.04.98.72c-.33-.93-1.04-1.48-1.98-1.9.16-.02.25-.02.33-.04,1.14-.26,1.23-1.32.69-2.01-.29-.38-.49-.93-.46-1.36.5.77,1.15,1.26,2.05,1.34-.39-.28-.85-.45-1.17-.82.02-.02.04-.03.05-.05Z" fill="#feebb8"/><path d="m28.26,98.42c-.16.09-.36-.05-.45.14.72.2,1.48.27,2.14.68.05.03.14.01.22.01.06,0,.12,0,.18,0,1.25.15,2.4-.15,3.51-.72.46-.24.96-.38,1.45-.54.48-.16.99-.23,1.47-.4-1.01-.04-2,.08-2.97.41.72-.6,1.51-1.1,2.32-1.58-1.28.24-2.42.81-3.49,1.62.19-.66.99-1.48,1.7-1.92.99-.61,2.09-.87,3.25-.89.23,0,.29.09.33.26.2.91.36,1.82.39,2.76.03,1.09,0,2.18-.36,3.23-.19.57-.46,1.09-.78,1.59-.12.19-.22.09-.33.04-1.18-.49-2.25-1.17-3.3-1.9-.52-.36-1.01-.75-1.51-1.14-.08-.06-.14-.11-.25-.1-.45.03-.91-.03-1.37.06-.16.03-.27.1-.36.21-.62.75-1.37,1.33-2.24,1.77-.61.31-1.27.45-1.93.59-.17.03-.19-.08-.23-.2-.25-.8-.42-1.62-.55-2.46-.1-.67-.17-1.33-.16-2.01,0-.19.05-.26.24-.22.64.12,1.28.24,1.92.36.39.07.78.17,1.17.34Z" fill="#feebb8"/><path d="m39.83,102.58c.5-.75,1.01-1.49,1.49-2.25,1.01-1.58,1.89-3.23,2.49-5.01.11-.31.15-.64.22-.97,0-.01-.02-.04-.06-.08-1.28,1.68-2.76,3.13-4.56,4.24.63-.58,1.21-1.21,1.78-1.84.59-.64,1.15-1.3,1.59-2.06-.84.6-1.53,1.4-2.51,1.79.91-.82,1.76-1.69,2.49-2.68-.83.56-1.56,1.26-2.46,1.7-.02-.02-.04-.05-.06-.07.42-.4.84-.8,1.26-1.2-.02-.03-.04-.05-.06-.08-.52.23-.9.72-1.47.88.75-.69,1.43-1.44,2.07-2.23-.95.54-1.8,1.23-2.81,1.69.63-.57,1.26-1.15,1.9-1.72-.89.4-1.66,1.01-2.59,1.32.89-.65,1.74-1.35,2.55-2.09.32-.29.6-.62.9-.93.24-.24.45-.5.6-.81.2-.39-.14-1.12-.65-1.19-.37-.05-.58.07-.57.58.02,1.03-.72,1.54-1.36,2.07-1.6,1.34-3.49,2.22-5.35,3.13-.49.24-.99.47-1.5.65-.22.08-.29.33-.42.51-.45.63-.78,1.31-.99,2.05-.05.19-.12.22-.29.21-.29,0-.58,0-.91,0,.17-.22.4-.28.6-.37.24-.11.37-.25.44-.52.2-.73.53-1.39,1.07-1.94.45-.46,1-.78,1.58-1.03,1.83-.8,3.62-1.68,5.26-2.83.46-.32.88-.71,1.21-1.18.18-.26.28-.52.27-.83-.01-.42.35-.99.72-1.12.44-.14.76.07,1.1.34.55.44.5,1.08.65,1.65.24.93.41,1.88.59,2.82.03.14.11.15.22.19.35.13.72.14,1.09.24-.36,1.12-.83,2.2-1.35,3.25-.79,1.61-1.77,3.09-2.9,4.48-.37.46-.75.92-1.22,1.29-.02-.02-.04-.03-.06-.04Z" fill="#feebb8"/><path d="m32.69,82.53s-.1-.06-.15-.09c.08-.05.15-.06.2.04-.02.02-.04.03-.05.05Z" fill="#feebb8"/><path d="m39.81,102.69c0,.06-.04.08-.09.07-.01,0-.02-.03-.03-.04.03-.02.06-.03.09-.05.01,0,.02.02.03.03Z" fill="#feebb8"/><path d="m38.77,75.93s.06,0,.09,0c-.02.02-.04.04-.06.06-.01-.02-.03-.04-.03-.06Z" fill="#feebb8"/><path d="m39.78,102.66s.04-.05.05-.08c.02.01.04.02.06.04,0,.04-.03.07-.08.07-.01,0-.02-.02-.03-.03Z" fill="#feebb8"/><path d="m94.9,90.4l1.83,1.65h1.32s1.83-1.63,1.83-1.63l-1-.78.03-.48.48-.11,1.21.54.41-.06,2.02-.81.47.14.86.22,10.3-.02,2.08.04,2.99.13.48.71-.58,1.9-.26.17h-8.94s-1.33-.04-1.33-.04l-.25-.24v-.39s-.72-.73-.72-.73l-4.09-.05-.6.24-2.81,2.39-1.4,1.19,1.75,1.65,1.32,1.25,1.36,1.38,1.26,1.96-.44,1.28-1.24-.07-1.45-1.31-4.08-4.16-.32-.3-3.73,3.72-2.21,2.08-1.22.02-.41-1.28,1.16-1.84,2.51-2.51,1.91-1.75-.04-.25-1.93-1.58-2.18-1.9-.44-.17h-4.16s-.71.59-.71.59l-.06.2-.75.64-6.92-.03-2.62.05-.55-.37-.5-1.76.52-.68,9.66-.17,6,.02.41-.12,1.76.02.94.61.28.02,1.06-.5.68.02-.11.77-.84.5h0Zm8.27.37h-.12s-.03.15-.03.15l-.42.17-3.97,1.46-.71.35v.29s.94.86.94.86h.28s1.48-1.16,1.48-1.16l2.4-1.97.15-.14.1-.17.49-.7-.39-.7.21.9-.31.5-.1.17h0Zm-11.78-1.5l-.26.25.26-.26.35-.22-.34.22h0Zm7.74.43l.96.48-.92-.51-.06-.32.36.04.62.31-.59-.39-.43-.02.04.42h0Zm1.55,9.16l-.36-.18.36.16.04.16,1.36,1.42.27-.21,1.5-.34.09-.3-.4-.45-1.27-.5-1.59.24h0Zm-8.56-7.78l-.04.08.09.1,2.58,2.07,2.29,1.92,1.24.74,2.03.15-.26-.29-2.26-2.06-1.54-1.15-1.6-.6-2.54-.95h0Zm27.53.11l-.62.24-.77-.09-3.65-.07h-1.29s-3.85.15-3.85.15l.49.33-.53.04v.05h9.61s.61-.64.61-.64h0Zm-34.57.31l-.24-.11-1.72-.1-6.97.12-.7.06-.45-.52.25.66.33.23h9.35s.15-.33.15-.33h0Zm11.51,4.78l-1.55.09-1.36.48-.12.08-1.34,1.28,2.04.31.27-.06.81-.85,1.25-1.32h0Zm-10.4-6.35l-.51.82-.06.88-.04.12.18-.1v-.32s.89-.87.89-.87l2.69-.02h1.6s0-.12,0-.12h-.81l.72-1.07-14.31.14,10.7-.02-1.18.93.12-.36h0Zm16.39,8.25l-1.7-1.58-.3-.18-2.12-.15-.19.05.13.19,1.63,1.67.71.28,1.85-.28h0Zm1.33-7.86l.02.06h.14s4.37.08,4.37.08l.44.26.16.53.15.63-.62-2.09.16.49-.85-.36-.2-.33.12-.25,1.96-.02h5.31s.49-.06.49-.06h-11.66l.72.86-.14.19h-.57Zm-13.23,9.52l.57.1,1.39.4.2-.04,1.09-1.18-.1-.26-1.48-.27-.55.04-1.13,1.22h0Zm3.83-3.75l2.28-.17.24-.07-.12-.24-.78-.72h-.33s-1.28,1.19-1.28,1.19h0Zm-17.83-5.11l7.83-.03-7.83.03h0Zm33.64,0l7.96.14v-.14s-7.96,0-7.96,0h0Zm8.02-1.28l-7.87-.08,7.87.08h0Zm-34.39-.02h-7.53,7.53Zm-4.89,1.05h4.61-4.61Zm36.75.05v-.04s-3.42,0-3.42,0v.04s3.42,0,3.42,0h0Zm-12.64,10.6l1.45-.12-1.45.12h0Zm13.7-12.03h1.52-1.52Zm-21.15-.05l-1.44.5,1.44-.5h0Zm24.14.23v-.12h-1.22l.61.11h.61Zm-44.83-.13v.07s1.17,0,1.17,0v-.07s-1.17,0-1.17,0h0Zm17.2,11.4l-.65.53.65-.53h0Z" fill="#fdecb9"/><polygon points="92.22 100.78 91.57 101.32 92.22 100.78 92.22 100.78" fill="#1c1b1c"/><polyline points="103.27 90.59 103.27 90.59 103.17 90.77 103.17 90.77" fill="#1c1b1c"/><polygon points="90.19 89.33 89.76 90.12 89.25 90.29 89.23 90.1 89.64 89.48 90.19 89.33 90.19 89.33" fill="#fdecb9"/><polygon points="87.33 90.29 88.1 89.3 87.33 90.29 87.33 90.29" fill="#fdecb9"/><polygon points="104.56 89.35 105.11 89.43 105.57 90.17 105.49 90.3 105.06 90.17 104.56 89.35 104.56 89.35" fill="#fdecb9"/><polygon points="106.79 89.37 106.93 89.45 107.38 90.16 107.38 90.3 107.25 90.29 106.72 89.46 106.79 89.37 106.79 89.37" fill="#fdecb9"/><text transform="translate(55.51 74.48)" fill="#feebb8" font-family="Impact, Impact" font-size="18.91"><tspan x="0" y="0">BARBEARIA</tspan></text><line x1="53.55" y1="82.21" x2="79.23" y2="82.21" fill="none" stroke="#feebb8" stroke-miterlimit="10" stroke-width=".26"/><line x1="115.52" y1="82.21" x2="141.21" y2="82.21" fill="none" stroke="#feebb8" stroke-miterlimit="10" stroke-width=".26"/><text transform="translate(86.4 86.84)" fill="#feebb8" font-family="Lato-Light, Lato" font-size="11.75" font-weight="300" letter-spacing=".23em"><tspan x="0" y="0">PH</tspan></text></svg>