<?xml version="1.0" encoding="UTF-8"?><svg id="Camada_1" xmlns="http://www.w3.org/2000/svg" viewBox="0 0 32 32"><path d="m20.35,29.73s-.03.02-.05.03c0,0,0,.03.02.03.03,0,.05,0,.06-.04.03,0,.04-.01.05-.04.28-.22.51-.5.74-.78.68-.84,1.28-1.74,1.76-2.72.32-.64.6-1.29.82-1.97-.23-.06-.45-.07-.66-.15-.07-.02-.11-.03-.13-.12-.11-.57-.22-1.14-.36-1.71-.09-.34-.06-.73-.39-1-.21-.16-.4-.29-.67-.21-.22.07-.44.42-.44.68,0,.19-.05.35-.16.5-.2.28-.45.52-.73.71-1,.69-2.08,1.23-3.19,1.71-.35.15-.68.34-.96.62-.33.34-.53.74-.65,1.18-.05.16-.12.25-.27.32-.12.05-.26.09-.36.22.2,0,.38,0,.55,0,.1,0,.14-.01.17-.13.13-.45.33-.86.6-1.24.08-.11.12-.26.25-.31.31-.11.61-.25.91-.39,1.13-.55,2.27-1.08,3.24-1.89.39-.32.83-.63.82-1.26,0-.31.12-.38.34-.35.31.05.51.48.39.72-.09.19-.22.34-.36.49-.18.19-.35.39-.54.57-.49.45-1.01.87-1.55,1.27.56-.19,1.03-.56,1.57-.8-.38.35-.77.7-1.15,1.05.61-.28,1.13-.69,1.7-1.02-.39.48-.8.94-1.25,1.35.35-.1.57-.39.89-.53.01.02.03.03.04.05-.26.24-.51.48-.77.73.01.01.02.03.04.04.55-.26.99-.69,1.49-1.03-.44.6-.96,1.13-1.51,1.63.6-.24,1.02-.72,1.52-1.08-.27.46-.61.86-.96,1.25-.35.38-.7.76-1.08,1.11,1.09-.67,1.99-1.55,2.76-2.57.02.03.04.04.04.05-.04.2-.07.4-.13.59-.37,1.08-.9,2.08-1.51,3.03-.29.46-.6.91-.9,1.36l-.03.05Zm-.61-16.2c-.17.11-.29.29-.45.47.16-.86.95-1.58,1.94-1.37.32.07.59.23.75.56.23.48.15.95-.01,1.4-.1.28-.24.55-.36.82-.12.28-.24.58-.34.87-.24.69-.37,1.38-.24,2.11.15-.72.51-1.35.88-1.97.38-.64.83-1.25,1.13-1.94.34-.8.36-1.57-.17-2.31-.06-.08-.17-.13-.16-.26.52.23.84.83.86,1.23,0,.12,0,.24.09.36.17-.28.35-.54.47-.83.34-.84.36-1.67-.05-2.49-.05-.1-.07-.19-.04-.31.2-.8.39-1.61.3-2.45-.06-.63-.23-1.2-.55-1.74-.07-.11-.13-.26-.3-.32.33.76.58,1.51.33,2.36-.38-2.55-2.48-3.43-3.94-3.58.54.28,1.01.57,1.42.96.42.4.74.87.98,1.43.03-.23-.03-.4-.07-.58-.04-.19-.15-.35-.22-.54.78.53,1.16,2.19.79,3.23-.05,0-.04-.03-.05-.06-.08-.46-.27-.89-.5-1.29-.28-.49-.62-.93-1.09-1.25-.79-.54-1.69-.85-2.55-1.24-.68-.31-1.35-.63-1.86-1.2-.08-.08-.12-.21-.28-.27.27.75.78,1.24,1.41,1.64-.81-.17-1.54-.52-2.19-1.02-.66-.52-1.12-1.2-1.39-2.01-.01.14-.02.28.01.4.28,1.09.9,1.91,1.91,2.41.42.21.86.37,1.27.59.92.49,1.91.9,2.26,2.02,0,.02.03.04.05.04.03,0,.06-.03.05-.06-.06-.12,0-.24-.04-.37-.06-.27-.19-.5-.3-.75.71.68,1.1,1.52,1.23,2.5.09-.35.08-.7.04-1.05-.04-.33-.12-.67-.31-.96.34.29.56.66.68,1.08.1.36.15.73.09,1.11,0,.06-.04.14.09.16.36.06.71.17,1.05.31.24.1.47.22.65.43-1.08-.25-2.17-.33-3.27-.22.22-.13.47-.13.69-.2-1.34-.08-2.44.5-3.45,1.3.23-.36.51-.66.82-.91.25-.2.51-.39.8-.52.26-.11.52-.18.79-.24.08-.02.14-.04.14-.14,0-.44.02-.88-.14-1.29-.29-.76-.84-1.29-1.55-1.66-.14-.08-.28-.19-.49-.18.52.36,1,.89,1.01,1.11-.57-.63-1.24-1.09-1.98-1.45-.41-.2-.85-.33-1.26-.54-.46-.24-.92-.48-1.2-.96-.04-.07-.05-.16-.19-.24.12.55.32,1,.67,1.38.35.38.79.63,1.22.9-.64-.12-1.17-.43-1.61-.9-.44-.47-.65-1.05-.72-1.69-.08.04-.13.09-.12.18.01.44-.03.89.09,1.33.27.99.87,1.69,1.79,2.13.48.23.97.38,1.48.51-1.23-.05-2.43-.21-3.27-1.31-.13.59-.03,1.12.27,1.61.29.49.74.79,1.23,1.06-.38.13-1.71-.61-2.09-1.09-.52-.66-.78-1.4-.85-2.29-.16.46-.17.87-.18,1.29-.21-.46-.29-.93-.2-1.42.14-.79.56-1.4,1.13-1.94-.71.45-1.3,1.02-1.66,1.8-.36.8-.33,1.61-.02,2.42-.56-.84-.76-1.72-.35-2.68-.25.28-.35.63-.48.96.09-1.48.96-2.44,2.16-3.17-1.31.23-2.41.81-3.22,1.89-.5.67-.89,2.01-.74,2.58.16-.56.31-1.08.7-1.55-.64,2.39.49,3.88,2.38,5.01-.39.03-1.47-.3-2.24-.97-1.17-1.02-1.38-2.35-1.1-3.83-.05.04-.08.05-.09.06-.23.66-.35,1.35-.27,2.04.12,1.03.66,1.81,1.6,2.3.55.29,1.13.48,1.74.58-.56.74-.7,1.37-.61,1.52.23-.55.43-.84.83-1.2.15-.14.29-.28.54-.21.13.04.27,0,.45,0-.97-.59-1.75-1.28-2.2-2.3.51.59,1.08,1.09,1.79,1.43.64.3,1.59.44,2.27.26-.51-.13-1.01-.27-1.46-.51-.46-.24-.88-.53-1.24-.92,1.78,1.01,3.62,1.34,5.59.59-.41.4-.68.86-.9,1.36.36-.35.64-.79,1.11-1-.5.56-.81,1.09-.87,1.53,1.6-.32,3.45.02,3.85.41-.41-.1-.8-.19-1.21-.23-.46-.04-.91-.06-1.37,0-.17.02-.17.06-.08.2.3.43.55.88.7,1.36-1.24,0-2.49,0-3.73,0-.04,0-.08,0-.11-.02-.46-.17-.93-.26-1.42-.31-.64-.08-1.23.03-1.76.38-.2.13-.38.13-.58.11-.12-.02-.22-.1-.33-.14-.47-.17-.6-.17-.91.16-.09.09-.08.21-.11.31-.17.49-.08.95.22,1.37.22.31.56.42.91.47.15.02.14.07.08.16-.07.12-.14.24-.23.39.21-.08.31-.23.4-.39.24-.43.27-.89.26-1.37,0-.1-.05-.23.13-.25.18-.01.2.11.22.23.05.42.17.82.38,1.19.22.4.55.69,1.01.74.68.07,1.18-.28,1.57-.79.28-.36.39-.79.36-1.25,0-.12.01-.18.15-.17.17.01.35-.02.52-.02,1.03-.02,2.06-.02,3.09-.02.06,0,.12,0,.12.08.03.38.06.76,0,1.15-.05.32-.13.63-.24.94.26-.24.34-.59.51-.88.05.56.06,1.1-.16,1.61-.32.76-.93.92-1.65.87-.28-.02-.54-.14-.81-.19-.03-.06-.07-.05-.12-.02.03.02.06.03.09.05.2.23.47.33.71.5-.55-.05-.94-.34-1.24-.81-.02.26.1.59.28.82.33.42.27,1.06-.42,1.22-.05.01-.11.01-.2.02.57.25,1,.59,1.2,1.15q-.43-.41-.59-.44c.51.55.7,1.21.45,1.67-.06-.38-.11-.73-.32-1.06-.21-.32-.47-.55-.84-.66.08.09.17.18.25.26,0,.02-.02.04-.03.06-.53-.4-1.12-.65-1.83-.66.8.5.7,1.16.43,1.86.24-.24.31-.57.43-.86.06.86-.65,1.58-1.19,1.63.36-.48.67-.98.58-1.64-.05.07,0,.18-.11.19-.02-.36-.1-.69-.42-.9.08.37.16.74-.2,1.01-.29.22-.85.31-1.03.18.22-.05.42-.13.62-.23.07-.04.13-.08.13-.16,0-.1-.08-.09-.15-.12-.06-.02-.11-.03-.17-.04-.24-.03-.48-.09-.67-.26-.1-.09-.22-.15-.34-.19-.42-.15-.82-.07-1.02.37-.02.04-.04.04-.08.03-.06-.23.08-.39.21-.53.07-.07.05-.09,0-.13-.15-.13-.26-.29-.34-.47-.15-.34.08-.93.44-1,.38-.07.76-.03,1.08.26.45.4.97.69,1.6.65.3-.02.6-.05.89-.27h-.6c.42-.14.87-.19,1.2-.54.32-.34.47-.94.3-1.21-.26.92-1.29,1.21-1.78.97.35-.03.66-.12.98-.39-.77.13-1.37-.08-1.88-.58.07.14.13.28.2.43-.29-.05-.56-.38-.61-.69-.08-.5-.31-.76-.79-.65.14.08.29.14.32.32,0,.04.04.09,0,.12-.05.05-.09,0-.14-.02-.3-.14-.61-.21-.93-.04,0-.08.11-.1.05-.17-.16-.05-.2.22-.35.13-.12-.07-.17-.2-.18-.36-.15.21-.15.28,0,.52.03.06.1.1.05.17-.04.08-.06.14.06.15.07,0,.05.07.04.1-.09.33-.19.5-.54.61-.15.04-.31,0-.46.06.16.15.34.2.53.22-.3.12-.57.09-.81-.18.06.43.46.78.86.81.14.01.22.06.22.23,0,.45-.04.9-.13,1.34-.15.68-.43,1.27-1.04,1.67.42-.04.76-.25,1.03-.61-.02.59-.46,1.14-1.12,1.44.34.13.64.01.96-.09-.61,1.47.2,2.9,1.85,3.69-.36-.46-.6-.94-.74-1.45-.17-.62-.15-1.3.07-1.54,0,.18,0,.35,0,.52.02.46.13.89.38,1.29.43.69,1.08,1.03,1.82,1.27.08.03.21.05.26-.05.25-.45.39-.92.34-1.45-.03-.33-.09-.65-.2-.97.28.33.45.72.49,1.14.04.43,0,.85-.24,1.23,1.85-.71,2.86-2.09,3.28-3.98.07.05.06.1.05.15-.03.58-.15,1.15-.37,1.75.46-.3.84-.61,1.16-.98.9-1.01,1.36-2.19,1.32-3.56.22.61.13,1.24.14,1.87.14-.12.2-.28.26-.41.45-.98.46-2.01.24-3.05-.13-.63-.32-1.26-.36-1.9-.06-.93-.12-1.87.35-2.74l.04-.03s-.04,0-.06,0Zm-6.37,13.63c-.23-.1-.47-.16-.71-.2-.39-.07-.78-.14-1.16-.22-.12-.02-.15.02-.15.14,0,.41.03.81.09,1.22.08.51.18,1,.33,1.49.02.07.04.14.14.12.4-.08.8-.17,1.17-.36.52-.27.98-.62,1.36-1.07.05-.07.12-.11.22-.13.28-.06.55-.02.83-.04.07,0,.1.03.15.06.3.23.6.47.92.69.63.44,1.29.85,2,1.15.07.03.12.09.2-.02.2-.3.36-.62.47-.96.22-.64.23-1.29.22-1.96-.01-.57-.11-1.12-.23-1.67-.02-.1-.06-.16-.2-.16-.7.02-1.37.17-1.97.54-.43.26-.91.76-1.03,1.16.65-.49,1.34-.83,2.11-.98-.49.29-.96.59-1.4.96.59-.2,1.19-.27,1.8-.25-.29.1-.6.14-.89.24-.3.1-.6.18-.88.33-.67.35-1.37.53-2.13.44-.04,0-.07,0-.11,0-.04,0-.1.01-.13,0-.4-.25-.86-.29-1.29-.41.06-.12.18-.03.27-.09Z" fill="#1c1b1c"/><path d="m16.09,17.5c.27.05.53.17.81.19.71.06,1.33-.11,1.65-.87.21-.51.21-1.06.16-1.61-.18.29-.25.64-.51.88.12-.3.2-.61.24-.94.06-.39.03-.77,0-1.15,0-.09-.06-.08-.12-.08-1.03,0-2.06,0-3.09.02-.17,0-.35.04-.52.02-.14,0-.16.05-.15.17.04.46-.08.88-.36,1.25-.39.51-.89.86-1.57.79-.46-.05-.79-.34-1.01-.74-.21-.37-.33-.77-.38-1.19-.02-.13-.04-.25-.22-.23-.18.01-.13.15-.13.25,0,.47-.02.94-.26,1.37-.09.17-.2.31-.4.39.09-.15.16-.27.23-.39.05-.09.07-.14-.08-.16-.36-.05-.69-.16-.91-.47-.3-.42-.39-.88-.22-1.37.03-.1.02-.22.11-.31.32-.33.45-.32.91-.16.11.04.22.12.33.14.2.03.38.02.58-.11.53-.35,1.11-.45,1.76-.38.49.06.96.14,1.42.31.03.01.07.02.11.02,1.24,0,2.49,0,3.73,0-.15-.48-.4-.93-.7-1.36-.1-.14-.09-.18.08-.2.46-.06.91-.05,1.37,0,.41.04.8.13,1.21.23-.4-.39-2.25-.73-3.85-.41.06-.43.38-.97.87-1.53-.47.22-.75.66-1.11,1,.23-.5.49-.96.9-1.36-1.97.75-3.82.42-5.59-.59.36.39.78.69,1.24.92.46.24.95.37,1.46.51-.68.17-1.63.04-2.27-.26-.72-.34-1.28-.84-1.79-1.43.45,1.02,1.22,1.71,2.2,2.3-.18,0-.32.03-.45,0-.25-.07-.39.07-.54.21-.4.36-.6.65-.83,1.2-.09-.15.05-.79.61-1.52-.62-.1-1.19-.29-1.74-.58-.94-.49-1.48-1.27-1.6-2.3-.08-.69.03-1.38.27-2.04,0-.02.03-.03.09-.06-.28,1.48-.07,2.81,1.1,3.83.77.67,1.85,1.01,2.24.97-1.89-1.13-3.02-2.62-2.38-5.01-.39.47-.55.98-.7,1.55-.15-.57.24-1.91.74-2.58.8-1.07,1.9-1.66,3.22-1.89-1.2.74-2.07,1.69-2.16,3.17.13-.33.23-.68.48-.96-.41.96-.21,1.84.35,2.68-.31-.81-.34-1.62.02-2.42.35-.78.94-1.35,1.66-1.8-.57.54-1,1.16-1.13,1.94-.09.49,0,.97.2,1.42,0-.42.02-.83.18-1.29.07.88.33,1.63.85,2.29.38.48,1.71,1.22,2.09,1.09-.5-.27-.95-.57-1.23-1.06-.29-.5-.39-1.03-.27-1.61.84,1.11,2.03,1.26,3.27,1.31-.51-.13-1-.28-1.48-.51-.92-.44-1.52-1.14-1.79-2.13-.12-.44-.08-.88-.09-1.33,0-.09.04-.13.12-.18.08.64.29,1.22.72,1.69.44.47.97.78,1.61.9-.43-.27-.87-.52-1.22-.9-.35-.38-.55-.83-.67-1.38.14.08.15.17.19.24.28.47.74.71,1.2.96.41.21.85.34,1.26.54.74.36,1.41.82,1.98,1.45,0-.23-.49-.76-1.01-1.11.21-.02.35.1.49.18.71.37,1.26.9,1.55,1.66.16.42.15.86.14,1.29,0,.1-.06.12-.14.14-.27.06-.54.13-.79.24-.3.13-.56.32-.8.52-.32.26-.6.56-.82.91,1.02-.8,2.11-1.39,3.45-1.3-.23.07-.48.08-.69.2,1.1-.11,2.19-.04,3.27.22-.18-.21-.41-.33-.65-.43-.34-.14-.69-.25-1.05-.31-.13-.02-.1-.1-.09-.16.06-.38.01-.75-.09-1.11-.12-.42-.34-.79-.68-1.08.19.3.27.63.31.96.04.34.05.7-.04,1.05-.13-.98-.52-1.81-1.23-2.5.11.25.24.48.3.75.03.12-.02.25.04.37.02.03-.02.06-.05.06-.01,0-.04-.02-.05-.04-.36-1.12-1.35-1.54-2.26-2.02-.41-.22-.85-.39-1.27-.59-1.02-.5-1.64-1.32-1.91-2.41-.03-.13-.02-.26-.01-.4.26.81.72,1.49,1.39,2.01.65.51,1.37.85,2.19,1.02-.63-.4-1.14-.89-1.41-1.64.16.05.2.18.28.27.52.57,1.18.89,1.86,1.2.86.39,1.76.7,2.55,1.24.47.33.81.76,1.09,1.25.23.4.42.83.5,1.29,0,.03,0,.06.05.06.36-1.04-.02-2.69-.79-3.23.07.19.18.36.22.54.04.18.1.35.07.58-.25-.56-.57-1.03-.98-1.43-.41-.39-.88-.68-1.42-.96,1.46.15,3.56,1.03,3.94,3.58.25-.85,0-1.6-.33-2.36.17.06.23.2.3.32.32.53.49,1.11.55,1.74.09.85-.09,1.65-.3,2.45-.03.12-.01.21.04.31.41.82.39,1.65.05,2.49-.12.3-.3.56-.47.83-.09-.12-.08-.24-.09-.36-.02-.41-.34-1-.86-1.23-.02.13.1.18.16.26.53.74.51,1.51.17,2.31-.3.69-.74,1.3-1.13,1.94-.37.62-.73,1.25-.88,1.97-.13-.73,0-1.42.24-2.11.1-.3.22-.59.34-.87.12-.27.26-.54.36-.82.16-.46.24-.93.01-1.4-.16-.33-.42-.49-.75-.56-.98-.22-1.77.5-1.94,1.37.17-.18.28-.36.45-.47,0,.01.01.03.02.04-.46.87-.4,1.81-.35,2.74.04.64.23,1.27.36,1.9.21,1.03.21,2.06-.24,3.05-.06.14-.12.29-.26.41-.02-.64.07-1.26-.14-1.87.04,1.37-.42,2.55-1.32,3.56-.33.37-.7.69-1.16.98.22-.6.34-1.17.37-1.75,0-.05.02-.1-.05-.15-.42,1.88-1.44,3.27-3.28,3.98.24-.38.28-.81.24-1.23-.04-.43-.21-.81-.49-1.14.11.32.17.64.2.97.05.52-.1,1-.34,1.45-.06.1-.18.08-.26.05-.74-.23-1.4-.58-1.82-1.27-.25-.4-.36-.83-.38-1.29,0-.17,0-.34,0-.52-.23.25-.24.92-.07,1.54.14.51.37.99.74,1.45-1.65-.79-2.46-2.22-1.85-3.69-.32.11-.62.23-.96.09.66-.29,1.1-.85,1.12-1.44-.27.36-.61.57-1.03.61.62-.39.9-.99,1.04-1.67.09-.44.13-.89.13-1.34,0-.17-.07-.21-.22-.23-.4-.03-.8-.38-.86-.81.24.26.51.29.81.18-.19-.02-.37-.08-.53-.22.16-.06.31-.02.46-.06.35-.1.45-.27.54-.61,0-.04.03-.1-.04-.1-.12-.01-.1-.07-.06-.15.04-.08-.02-.12-.05-.17-.14-.24-.14-.31,0-.52,0,.16.06.29.18.36.16.09.19-.17.35-.13.06.07-.06.09-.05.17.32-.17.63-.1.93.04.05.02.09.07.14.02.04-.03,0-.08,0-.12-.03-.18-.18-.25-.32-.32.47-.11.71.15.79.65.05.32.32.64.61.69-.07-.15-.14-.29-.2-.43.51.51,1.11.71,1.88.58-.32.27-.64.37-.98.39.49.24,1.52-.05,1.78-.97.17.27.02.87-.3,1.21-.33.35-.78.4-1.2.54h.6c-.29.22-.6.25-.89.27-.63.04-1.15-.24-1.6-.65-.32-.29-.7-.33-1.08-.26-.36.07-.6.66-.44,1,.08.18.2.34.34.47.05.04.07.06,0,.13-.14.14-.27.31-.21.53.04,0,.06,0,.08-.03.19-.44.6-.52,1.02-.37.12.04.24.1.34.19.19.17.42.23.67.26.06,0,.11.02.17.04.07.03.15.02.15.12,0,.08-.06.12-.13.16-.2.1-.4.18-.62.23.18.13.74.04,1.03-.18.36-.27.28-.64.2-1.01.32.21.4.54.42.9.11-.01.06-.12.11-.19.08.67-.23,1.17-.58,1.64.54-.05,1.26-.77,1.19-1.63-.13.29-.2.62-.43.86.27-.7.37-1.36-.43-1.86.72.01,1.3.26,1.83.66,0-.02.02-.04.03-.06-.08-.09-.17-.18-.25-.26.37.11.63.34.84.66.21.32.26.68.32,1.06.25-.46.06-1.12-.45-1.67q.16.02.59.44c-.2-.56-.63-.9-1.2-1.15.1-.01.15-.01.2-.02.69-.16.74-.8.42-1.22-.18-.23-.29-.56-.28-.82.3.47.69.76,1.24.81-.24-.17-.52-.27-.71-.5.01-.01.02-.02.03-.03Z" fill="#feebb8"/><path d="m13.37,27.16c-.1.05-.22-.03-.27.09.44.12.9.16,1.29.41.03.02.09,0,.13,0,.04,0,.07,0,.11,0,.76.09,1.46-.09,2.13-.44.28-.14.58-.23.88-.33.29-.1.6-.14.89-.24-.61-.02-1.21.05-1.8.25.44-.37.92-.67,1.4-.96-.78.15-1.47.49-2.11.98.11-.4.6-.9,1.03-1.16.6-.37,1.27-.52,1.97-.54.14,0,.18.06.2.16.12.55.22,1.1.23,1.67.02.66,0,1.32-.22,1.96-.12.34-.28.66-.47.96-.07.11-.13.05-.2.02-.71-.3-1.37-.71-2-1.15-.31-.22-.61-.46-.92-.69-.05-.04-.09-.07-.15-.06-.28.02-.55-.02-.83.04-.1.02-.16.06-.22.13-.38.46-.83.81-1.36,1.07-.37.19-.77.28-1.17.36-.1.02-.12-.05-.14-.12-.15-.49-.26-.98-.33-1.49-.06-.4-.1-.81-.09-1.22,0-.12.03-.16.15-.14.39.08.78.15,1.16.22.24.04.47.11.71.2Z" fill="#feebb8"/><path d="m20.39,29.68c.3-.45.61-.9.9-1.36.61-.96,1.14-1.96,1.51-3.03.06-.19.09-.39.13-.59,0,0-.01-.02-.04-.05-.77,1.02-1.67,1.9-2.76,2.57.38-.35.73-.73,1.08-1.11.36-.39.69-.79.96-1.25-.51.36-.93.85-1.52,1.08.55-.5,1.06-1.03,1.51-1.63-.5.34-.94.76-1.49,1.03-.01-.01-.02-.03-.04-.04.26-.24.51-.48.77-.73-.01-.02-.03-.03-.04-.05-.32.14-.55.44-.89.53.45-.42.87-.87,1.25-1.35-.57.33-1.09.75-1.7,1.02.38-.35.77-.7,1.15-1.05-.54.24-1.01.61-1.57.8.54-.39,1.06-.82,1.55-1.27.19-.18.36-.38.54-.57.14-.15.27-.31.36-.49.12-.24-.08-.68-.39-.72-.22-.03-.35.04-.34.35.01.63-.44.93-.82,1.26-.97.81-2.11,1.35-3.24,1.89-.3.14-.6.28-.91.39-.13.05-.17.2-.25.31-.27.38-.47.8-.6,1.24-.03.11-.07.13-.17.13-.18,0-.35,0-.55,0,.1-.14.24-.17.36-.22.14-.06.22-.15.27-.32.12-.44.32-.84.65-1.18.27-.28.61-.47.96-.62,1.11-.49,2.19-1.02,3.19-1.71.28-.19.53-.43.73-.71.11-.16.17-.31.16-.5,0-.25.21-.6.44-.68.26-.09.46.04.67.21.34.27.31.66.39,1,.14.56.25,1.14.36,1.71.02.08.07.09.13.12.21.08.44.08.66.15-.22.68-.5,1.33-.82,1.97-.48.97-1.07,1.87-1.76,2.72-.22.28-.45.56-.74.78-.01,0-.02-.02-.04-.02Z" fill="#feebb8"/><path d="m16.06,17.53s-.06-.03-.09-.05c.05-.03.09-.04.12.02-.01.01-.02.02-.03.03Z" fill="#feebb8"/><path d="m20.37,29.75s-.02.05-.06.04c0,0-.01-.02-.02-.03.02,0,.03-.02.05-.03,0,0,.01,0,.02.02Z" fill="#feebb8"/><path d="m19.74,13.54s.04,0,.06,0c-.01.01-.02.02-.04.03,0-.01-.02-.02-.02-.04Z" fill="#feebb8"/><path d="m20.35,29.73s.02-.03.03-.05c.01,0,.02.01.04.02,0,.03-.02.04-.05.04,0,0-.01-.01-.02-.02Z" fill="#feebb8"/></svg>