<?xml version="1.0" encoding="UTF-8"?><svg id="Camada_1" xmlns="http://www.w3.org/2000/svg" viewBox="0 0 595.28 841.89"><path d="m338.83,365.88c-.16.09-.33.18-.49.27.05.09.09.24.16.26.3.07.5-.05.52-.38.27,0,.41-.13.45-.39,2.69-2.11,4.85-4.75,6.98-7.37,6.46-7.95,12.07-16.48,16.62-25.69,2.99-6.05,5.68-12.21,7.73-18.66-2.15-.6-4.28-.65-6.27-1.39-.62-.23-1.08-.29-1.24-1.1-1.07-5.4-2.05-10.82-3.4-16.15-.83-3.26-.54-6.94-3.72-9.46-1.97-1.56-3.8-2.78-6.3-1.95-2.11.7-4.19,3.99-4.13,6.4.04,1.8-.5,3.3-1.55,4.77-1.91,2.68-4.3,4.91-6.94,6.74-9.42,6.56-19.68,11.61-30.17,16.22-3.31,1.45-6.44,3.24-9.04,5.91-3.09,3.17-4.98,6.97-6.15,11.13-.43,1.52-1.17,2.37-2.53,2.98-1.16.52-2.49.84-3.44,2.13,1.9,0,3.57-.04,5.24.01.93.03,1.33-.14,1.64-1.23,1.2-4.23,3.1-8.18,5.66-11.76.73-1.02,1.15-2.47,2.38-2.91,2.96-1.05,5.8-2.36,8.61-3.72,10.69-5.18,21.49-10.25,30.67-17.93,3.68-3.07,7.89-5.98,7.8-11.9-.05-2.93,1.16-3.63,3.25-3.32,2.94.43,4.84,4.58,3.71,6.84-.88,1.75-2.08,3.25-3.43,4.65-1.72,1.78-3.31,3.69-5.13,5.35-4.65,4.25-9.53,8.24-14.65,11.97,5.32-1.79,9.75-5.28,14.84-7.6-3.62,3.3-7.25,6.59-10.87,9.89,5.79-2.61,10.71-6.55,16.13-9.67-3.66,4.56-7.54,8.85-11.84,12.8,3.27-.91,5.43-3.73,8.43-5.04.12.16.24.31.36.47-2.42,2.29-4.83,4.58-7.25,6.87.11.14.22.28.34.42,5.19-2.5,9.38-6.53,14.13-9.72-4.2,5.67-9.05,10.68-14.26,15.39,5.65-2.23,9.61-6.81,14.42-10.24-2.54,4.35-5.74,8.15-9.11,11.81-3.32,3.6-6.62,7.22-10.23,10.55,10.32-6.35,18.83-14.66,26.14-24.31.2.28.36.4.34.49-.4,1.85-.67,3.75-1.27,5.54-3.48,10.21-8.52,19.65-14.29,28.71-2.76,4.34-5.69,8.59-8.54,12.87l-.31.47Zm-5.81-153.24c-1.65,1.08-2.7,2.78-4.29,4.49,1.56-8.17,9.02-14.98,18.33-12.92,3.06.68,5.58,2.18,7.06,5.28,2.15,4.51,1.4,8.95-.12,13.28-.92,2.64-2.23,5.22-3.38,7.78-1.18,2.63-2.27,5.46-3.25,8.25-2.26,6.49-3.55,13.03-2.3,19.93,1.43-6.84,4.82-12.76,8.34-18.65,3.63-6.07,7.87-11.79,10.68-18.34,3.23-7.54,3.37-14.87-1.64-21.84-.53-.73-1.64-1.2-1.47-2.44,4.92,2.18,7.96,7.83,8.14,11.67.05,1.13-.06,2.26.82,3.37,1.63-2.61,3.3-5.08,4.43-7.89,3.2-7.95,3.38-15.81-.51-23.58-.48-.95-.62-1.83-.34-2.94,1.93-7.61,3.65-15.19,2.82-23.22-.61-5.93-2.15-11.39-5.22-16.42-.65-1.07-1.18-2.45-2.83-3.01,3.14,7.2,5.47,14.29,3.15,22.32-3.62-24.14-23.46-32.46-37.29-33.84,5.09,2.64,9.58,5.39,13.44,9.1,3.95,3.8,6.97,8.19,9.31,13.51.26-2.14-.26-3.8-.67-5.5-.42-1.76-1.41-3.28-2.1-5.12,7.35,5.06,10.93,20.71,7.5,30.53-.44.07-.4-.28-.44-.53-.76-4.39-2.53-8.41-4.74-12.23-2.67-4.62-5.87-8.76-10.35-11.84-7.46-5.13-15.97-8.06-24.11-11.76-6.42-2.92-12.75-6-17.63-11.36-.73-.8-1.13-2.01-2.63-2.53,2.52,7.07,7.33,11.74,13.31,15.5-7.68-1.62-14.57-4.88-20.68-9.69-6.29-4.96-10.62-11.35-13.11-19.03-.1,1.33-.17,2.62.13,3.81,2.61,10.3,8.48,18.06,18.1,22.77,3.96,1.94,8.1,3.54,11.99,5.61,8.68,4.62,18.04,8.56,21.42,19.16.05.15.33.36.46.34.26-.05.59-.28.44-.58-.55-1.11-.08-2.3-.35-3.46-.59-2.54-1.81-4.77-2.86-7.11,6.74,6.43,10.44,14.37,11.65,23.61.88-3.3.79-6.65.41-9.89-.36-3.13-1.13-6.3-2.9-9.09,3.23,2.73,5.29,6.2,6.42,10.2.97,3.43,1.37,6.94.85,10.51-.08.57-.34,1.3.84,1.48,3.42.54,6.72,1.59,9.9,2.92,2.27.95,4.47,2.1,6.14,4.08-10.22-2.39-20.49-3.14-30.92-2.06,2.06-1.19,4.41-1.23,6.56-1.92-12.71-.79-23.06,4.74-32.68,12.34,2.14-3.38,4.8-6.21,7.8-8.63,2.33-1.89,4.8-3.7,7.61-4.92,2.42-1.06,4.94-1.75,7.52-2.27.77-.16,1.3-.38,1.31-1.28.05-4.14.2-8.3-1.33-12.25-2.79-7.19-7.96-12.19-14.66-15.72-1.35-.71-2.62-1.83-4.63-1.68,4.88,3.37,9.47,8.38,9.55,10.52-5.36-5.93-11.7-10.28-18.7-13.69-3.9-1.9-8.09-3.13-11.95-5.13-4.4-2.28-8.74-4.57-11.4-9.04-.38-.64-.49-1.54-1.84-2.25,1.17,5.2,3.04,9.44,6.38,13.06,3.32,3.61,7.5,5.98,11.57,8.55-6.04-1.13-11.1-4.04-15.22-8.52-4.12-4.48-6.1-9.98-6.83-16-.77.42-1.18.86-1.16,1.69.12,4.2-.27,8.41.86,12.55,2.55,9.35,8.22,15.96,16.97,20.13,4.51,2.14,9.2,3.61,13.99,4.82-11.68-.49-22.97-1.98-30.92-12.44-1.21,5.54-.25,10.55,2.51,15.24,2.71,4.61,6.98,7.5,11.68,10.04-3.61,1.27-16.17-5.73-19.75-10.29-4.9-6.24-7.35-13.28-8.02-21.64-1.49,4.32-1.63,8.23-1.68,12.16-1.96-4.32-2.73-8.79-1.92-13.46,1.29-7.45,5.34-13.29,10.71-18.4-6.73,4.3-12.35,9.63-15.67,17.03-3.41,7.58-3.13,15.25-.15,22.93-5.3-7.91-7.19-16.24-3.32-25.36-2.39,2.67-3.33,5.98-4.59,9.12.87-14.02,9.11-23.04,20.42-30.03-12.4,2.17-22.8,7.7-30.42,17.84-4.74,6.3-8.39,18.99-7.02,24.37,1.48-5.34,2.98-10.22,6.66-14.64-6.06,22.62,4.6,36.75,22.51,47.44-3.72.33-13.94-2.85-21.23-9.21-11.05-9.64-13.02-22.23-10.36-36.25-.52.36-.78.44-.84.6-2.22,6.25-3.31,12.78-2.52,19.31,1.18,9.75,6.25,17.11,15.14,21.74,5.2,2.71,10.65,4.54,16.48,5.45-5.27,6.97-6.62,12.96-5.73,14.4,2.21-5.22,4.09-7.96,7.84-11.37,1.43-1.3,2.74-2.69,5.09-1.99,1.2.36,2.59.06,4.26.06-9.19-5.55-16.53-12.15-20.77-21.77,4.85,5.54,10.17,10.35,16.95,13.53,6.1,2.87,15.05,4.13,21.49,2.5-4.82-1.27-9.52-2.56-13.86-4.79-4.36-2.23-8.33-5.05-11.74-8.74,16.82,9.57,34.29,12.69,52.92,5.56-3.89,3.75-6.42,8.13-8.55,12.83,3.4-3.28,6.01-7.43,10.46-9.49-4.72,5.27-7.69,10.36-8.27,14.43,15.11-3.03,32.67.16,36.41,3.85-3.88-.93-7.61-1.8-11.47-2.14-4.35-.38-8.66-.55-12.99.05-1.59.22-1.62.57-.72,1.88,2.8,4.05,5.16,8.35,6.59,12.85-11.76,0-23.52,0-35.28,0-.34,0-.71-.02-1.03-.14-4.35-1.65-8.84-2.42-13.48-2.96-6.06-.71-11.61.26-16.61,3.57-1.86,1.23-3.6,1.26-5.47,1.01-1.09-.14-2.09-.92-3.17-1.3-4.44-1.57-5.66-1.63-8.65,1.48-.83.86-.74,1.95-1.06,2.9-1.6,4.65-.78,9.01,2.05,13.01,2.11,2.98,5.28,4.02,8.65,4.48,1.41.19,1.28.63.76,1.53-.66,1.15-1.32,2.29-2.15,3.71,1.97-.8,2.94-2.15,3.82-3.72,2.28-4.06,2.51-8.46,2.47-12.95,0-.93-.5-2.2,1.23-2.33,1.69-.13,1.93,1.03,2.08,2.22.49,3.97,1.64,7.73,3.6,11.22,2.11,3.76,5.21,6.52,9.54,6.98,6.39.67,11.12-2.63,14.83-7.48,2.64-3.44,3.73-7.45,3.38-11.8-.09-1.09.13-1.66,1.42-1.58,1.65.1,3.32-.2,4.96-.23,9.75-.17,19.51-.16,29.26-.22.57,0,1.1-.08,1.18.76.33,3.63.61,7.23.08,10.91-.44,3.07-1.2,5.98-2.31,8.86,2.49-2.26,3.17-5.57,4.84-8.31.49,5.25.55,10.4-1.48,15.27-3,7.17-8.83,8.73-15.59,8.21-2.67-.21-5.1-1.34-7.69-1.79-.3-.55-.7-.51-1.15-.21.28.17.56.33.85.5,1.85,2.14,4.49,3.14,6.74,4.72-5.18-.44-8.89-3.24-11.75-7.67-.14,2.44.96,5.6,2.64,7.78,3.08,3.98,2.56,10.03-3.95,11.53-.49.11-.99.12-1.92.23,5.41,2.41,9.47,5.6,11.34,10.92q-4.09-3.91-5.62-4.13c4.87,5.22,6.64,11.49,4.3,15.81-.54-3.59-1.03-6.95-3.01-9.99-2-3.06-4.49-5.2-7.98-6.25.79.83,1.59,1.66,2.38,2.49-.09.19-.18.38-.27.57-5.03-3.8-10.56-6.12-17.33-6.23,7.6,4.69,6.65,10.95,4.11,17.61,2.25-2.28,2.9-5.36,4.1-8.14.61,8.16-6.19,14.92-11.27,15.4,3.38-4.52,6.29-9.24,5.52-15.55-.49.66-.03,1.67-1.03,1.8-.24-3.37-.94-6.51-4-8.47.78,3.55,1.52,7.01-1.91,9.59-2.76,2.08-8.05,2.89-9.75,1.7,2.07-.45,4.01-1.21,5.89-2.19.66-.34,1.24-.73,1.27-1.48.03-.93-.76-.9-1.43-1.13-.53-.19-1.02-.3-1.57-.37-2.32-.26-4.53-.86-6.31-2.47-.94-.85-2.05-1.4-3.19-1.8-3.97-1.39-7.8-.65-9.63,3.5-.15.34-.37.35-.74.29-.53-2.15.74-3.73,2.03-5.05.67-.69.49-.83.03-1.25-1.39-1.27-2.46-2.77-3.23-4.48-1.46-3.25.8-8.83,4.19-9.47,3.63-.68,7.18-.25,10.21,2.46,4.27,3.83,9.14,6.53,15.13,6.12,2.81-.19,5.7-.47,8.45-2.55h-5.67c3.99-1.29,8.26-1.79,11.34-5.08,3.03-3.25,4.48-8.9,2.84-11.44-2.44,8.68-12.24,11.41-16.85,9.18,3.29-.27,6.26-1.16,9.31-3.73-7.26,1.19-12.94-.71-17.75-5.5.63,1.33,1.27,2.66,1.94,4.07-2.71-.49-5.31-3.57-5.78-6.55-.74-4.7-2.97-7.15-7.46-6.15,1.37.74,2.78,1.33,3.05,3.06.06.4.38.81.04,1.14-.44.43-.83.02-1.28-.19-2.85-1.35-5.76-2.03-8.78-.39-.09-.74,1.04-.97.5-1.62-1.5-.45-1.87,2.08-3.34,1.19-1.12-.68-1.61-1.92-1.68-3.39-1.45,1.96-1.46,2.64-.09,4.93.31.52.91.93.5,1.64-.41.71-.61,1.28.56,1.39.63.06.46.65.36.99-.88,3.16-1.81,4.77-5.14,5.73-1.41.4-2.9.03-4.39.58,1.54,1.4,3.2,1.93,5.03,2.12-2.85,1.1-5.43.81-7.7-1.68.55,4.07,4.33,7.36,8.15,7.67,1.37.11,2.05.56,2.04,2.14-.02,4.27-.37,8.51-1.27,12.66-1.38,6.4-4.06,12.06-9.88,15.79,3.97-.41,7.15-2.33,9.72-5.78-.19,5.56-4.36,10.83-10.62,13.6,3.22,1.25,6.08.13,9.1-.9-5.73,13.88,1.92,27.42,17.53,34.89-3.42-4.37-5.66-8.9-6.96-13.74-1.57-5.85-1.46-12.26.7-14.58,0,1.67-.05,3.28,0,4.88.16,4.36,1.26,8.43,3.58,12.19,4.02,6.51,10.26,9.79,17.23,12,.77.24,1.94.51,2.48-.48,2.32-4.26,3.7-8.74,3.24-13.7-.29-3.14-.85-6.18-1.89-9.18,2.61,3.16,4.25,6.79,4.61,10.82.36,4.03-.05,8.03-2.29,11.67,17.48-6.67,27.09-19.79,31.06-37.62.69.44.52.97.5,1.39-.29,5.52-1.42,10.89-3.53,16.57,4.38-2.79,7.91-5.8,11-9.29,8.48-9.59,12.9-20.72,12.48-33.7,2.07,5.78,1.21,11.7,1.36,17.73,1.28-1.16,1.85-2.61,2.45-3.9,4.3-9.3,4.32-19.02,2.31-28.81-1.23-5.99-3.01-11.93-3.38-18.02-.53-8.78-1.09-17.7,3.28-25.91l.33-.32c-.17,0-.35-.02-.52-.02Zm-60.23,128.93c-2.22-.92-4.43-1.5-6.68-1.92-3.67-.69-7.34-1.37-11-2.08-1.13-.22-1.38.19-1.4,1.29-.08,3.88.32,7.7.89,11.53.71,4.78,1.7,9.49,3.15,14.1.21.67.34,1.33,1.31,1.13,3.8-.75,7.56-1.58,11.05-3.36,4.95-2.53,9.28-5.84,12.83-10.15.52-.63,1.14-1,2.06-1.19,2.61-.54,5.23-.23,7.83-.37.62-.03.99.25,1.44.59,2.87,2.21,5.7,4.47,8.67,6.52,5.99,4.15,12.16,8.03,18.91,10.87.62.26,1.16.85,1.86-.23,1.88-2.87,3.38-5.87,4.49-9.12,2.05-6.04,2.22-12.25,2.06-18.53-.14-5.37-1.04-10.61-2.21-15.82-.22-.98-.6-1.54-1.9-1.51-6.66.17-12.95,1.63-18.64,5.13-4.05,2.49-8.64,7.21-9.72,11,6.11-4.64,12.65-7.9,20.01-9.28-4.62,2.74-9.13,5.59-13.28,9.06,5.56-1.89,11.24-2.55,17.05-2.34-2.76.93-5.64,1.35-8.41,2.27-2.82.93-5.7,1.74-8.31,3.09-6.35,3.29-12.95,5-20.12,4.14-.34-.04-.7,0-1.04,0-.42-.01-.93.12-1.23-.08-3.74-2.38-8.11-2.76-12.25-3.9.55-1.12,1.67-.31,2.6-.81Z" fill="#1c1b1c"/><path d="m298.48,250.14c2.6.45,5.03,1.59,7.69,1.79,6.76.53,12.59-1.04,15.59-8.21,2.03-4.87,1.98-10.02,1.48-15.27-1.66,2.74-2.34,6.06-4.84,8.31,1.11-2.88,1.87-5.79,2.31-8.86.53-3.68.24-7.27-.08-10.91-.08-.84-.61-.77-1.18-.76-9.75.05-19.51.05-29.26.22-1.64.03-3.31.33-4.96.23-1.29-.08-1.51.49-1.42,1.58.35,4.35-.74,8.36-3.38,11.8-3.71,4.84-8.44,8.15-14.83,7.48-4.33-.46-7.43-3.22-9.54-6.98-1.96-3.49-3.11-7.25-3.6-11.22-.15-1.19-.39-2.35-2.08-2.22-1.73.13-1.24,1.4-1.23,2.33.04,4.49-.18,8.89-2.47,12.95-.88,1.56-1.86,2.91-3.82,3.72.82-1.42,1.48-2.57,2.15-3.71.52-.9.64-1.34-.76-1.53-3.36-.47-6.54-1.5-8.65-4.48-2.83-4-3.65-8.36-2.05-13.01.33-.95.23-2.04,1.06-2.9,2.99-3.11,4.21-3.05,8.65-1.48,1.08.38,2.07,1.16,3.17,1.3,1.87.25,3.61.22,5.47-1.01,4.99-3.31,10.55-4.28,16.61-3.57,4.63.54,9.13,1.31,13.48,2.96.32.12.68.14,1.03.14,11.76,0,23.52,0,35.28,0-1.43-4.5-3.8-8.8-6.59-12.85-.91-1.31-.87-1.66.72-1.88,4.33-.6,8.64-.43,12.99-.05,3.86.34,7.59,1.21,11.47,2.14-3.75-3.69-21.31-6.88-36.41-3.85.58-4.08,3.56-9.17,8.27-14.43-4.45,2.06-7.06,6.21-10.46,9.49,2.13-4.7,4.66-9.08,8.55-12.83-18.63,7.12-36.11,4-52.92-5.56,3.42,3.69,7.38,6.5,11.74,8.74,4.34,2.22,9.03,3.52,13.86,4.79-6.44,1.64-15.39.37-21.49-2.5-6.77-3.18-12.1-7.99-16.95-13.53,4.25,9.62,11.58,16.22,20.77,21.77-1.67,0-3.07.3-4.26-.06-2.35-.7-3.66.7-5.09,1.99-3.76,3.41-5.63,6.16-7.84,11.37-.89-1.44.46-7.43,5.73-14.4-5.83-.91-11.28-2.74-16.48-5.45-8.89-4.63-13.96-12-15.14-21.74-.79-6.52.3-13.05,2.52-19.31.06-.16.32-.24.84-.6-2.66,14.02-.69,26.61,10.36,36.25,7.29,6.36,17.51,9.54,21.23,9.21-17.91-10.69-28.57-24.81-22.51-47.44-3.69,4.42-5.19,9.3-6.66,14.64-1.38-5.39,2.28-18.07,7.02-24.37,7.62-10.14,18.02-15.67,30.42-17.84-11.31,6.99-19.55,16.01-20.42,30.03,1.26-3.14,2.2-6.45,4.59-9.12-3.87,9.12-1.99,17.45,3.32,25.36-2.98-7.68-3.26-15.36.15-22.93,3.32-7.39,8.94-12.73,15.67-17.03-5.36,5.11-9.42,10.95-10.71,18.4-.81,4.68-.04,9.14,1.92,13.46.05-3.94.19-7.84,1.68-12.16.66,8.37,3.12,15.4,8.02,21.64,3.57,4.56,16.14,11.55,19.75,10.29-4.69-2.55-8.97-5.43-11.68-10.04-2.76-4.69-3.72-9.7-2.51-15.24,7.95,10.46,19.24,11.95,30.92,12.44-4.79-1.21-9.48-2.67-13.99-4.82-8.75-4.16-14.42-10.78-16.97-20.13-1.13-4.14-.74-8.36-.86-12.55-.02-.84.4-1.27,1.16-1.69.73,6.03,2.71,11.52,6.83,16,4.12,4.48,9.19,7.39,15.22,8.52-4.08-2.57-8.26-4.94-11.57-8.55-3.33-3.63-5.2-7.86-6.38-13.06,1.35.72,1.46,1.61,1.84,2.25,2.66,4.48,7,6.76,11.4,9.04,3.87,2,8.05,3.23,11.95,5.13,7,3.41,13.35,7.76,18.7,13.69-.08-2.14-4.67-7.15-9.55-10.52,2.01-.15,3.28.97,4.63,1.68,6.7,3.53,11.88,8.53,14.66,15.72,1.53,3.95,1.38,8.11,1.33,12.25-.01.9-.54,1.12-1.31,1.28-2.57.53-5.1,1.22-7.52,2.27-2.81,1.23-5.28,3.03-7.61,4.92-3,2.42-5.66,5.25-7.8,8.63,9.62-7.59,19.98-13.13,32.68-12.34-2.16.69-4.5.73-6.56,1.92,10.42-1.08,20.7-.33,30.92,2.06-1.66-1.99-3.87-3.13-6.14-4.08-3.18-1.34-6.48-2.39-9.9-2.92-1.18-.19-.93-.92-.84-1.48.53-3.58.13-7.09-.85-10.51-1.13-4-3.19-7.47-6.42-10.2,1.77,2.79,2.54,5.96,2.9,9.09.38,3.23.46,6.59-.41,9.89-1.21-9.24-4.91-17.17-11.65-23.61,1.04,2.34,2.26,4.58,2.86,7.11.27,1.17-.2,2.35.35,3.46.15.3-.18.53-.44.58-.13.03-.41-.18-.46-.34-3.38-10.59-12.74-14.53-21.42-19.16-3.89-2.07-8.03-3.67-11.99-5.61-9.62-4.72-15.49-12.48-18.1-22.77-.3-1.19-.23-2.48-.13-3.81,2.49,7.68,6.83,14.08,13.11,19.03,6.11,4.82,13.01,8.08,20.68,9.69-5.98-3.76-10.79-8.43-13.31-15.5,1.5.52,1.9,1.73,2.63,2.53,4.88,5.36,11.2,8.44,17.63,11.36,8.15,3.7,16.65,6.63,24.11,11.76,4.48,3.08,7.68,7.23,10.35,11.84,2.21,3.82,3.97,7.84,4.74,12.23.04.25,0,.6.44.53,3.44-9.82-.15-25.47-7.5-30.53.69,1.84,1.68,3.36,2.1,5.12.4,1.7.92,3.36.67,5.5-2.33-5.32-5.35-9.71-9.31-13.51-3.86-3.71-8.35-6.46-13.44-9.1,13.83,1.38,33.67,9.7,37.29,33.84,2.33-8.04-.01-15.13-3.15-22.32,1.65.55,2.18,1.94,2.83,3.01,3.06,5.03,4.61,10.49,5.22,16.42.82,8.03-.89,15.61-2.82,23.22-.28,1.11-.14,1.99.34,2.94,3.9,7.78,3.71,15.64.51,23.58-1.13,2.81-2.8,5.27-4.43,7.89-.88-1.11-.77-2.24-.82-3.37-.18-3.84-3.22-9.5-8.14-11.67-.17,1.24.95,1.71,1.47,2.44,5.01,6.96,4.87,14.3,1.64,21.84-2.81,6.54-7.05,12.27-10.68,18.34-3.52,5.89-6.91,11.81-8.34,18.65-1.25-6.9.04-13.44,2.3-19.93.97-2.8,2.06-5.62,3.25-8.25,1.15-2.56,2.46-5.14,3.38-7.78,1.51-4.33,2.26-8.77.12-13.28-1.47-3.1-4-4.6-7.06-5.28-9.31-2.06-16.77,4.75-18.33,12.92,1.59-1.7,2.64-3.41,4.29-4.49.05.13.11.24.19.35-4.38,8.21-3.82,17.13-3.28,25.91.37,6.08,2.15,12.02,3.38,18.02,2.01,9.79,1.98,19.52-2.31,28.81-.6,1.3-1.17,2.75-2.45,3.9-.16-6.03.71-11.95-1.36-17.73.43,12.98-4,24.12-12.48,33.7-3.09,3.49-6.62,6.5-11,9.29,2.11-5.68,3.24-11.04,3.53-16.57.02-.43.19-.96-.5-1.39-3.97,17.83-13.58,30.95-31.06,37.62,2.24-3.64,2.65-7.64,2.29-11.67-.36-4.04-1.99-7.66-4.61-10.82,1.04,3,1.6,6.05,1.89,9.18.46,4.96-.92,9.44-3.24,13.7-.54.98-1.71.72-2.48.48-6.97-2.21-13.21-5.49-17.23-12-2.32-3.76-3.42-7.82-3.58-12.19-.06-1.6,0-3.2,0-4.88-2.16,2.32-2.27,8.73-.7,14.58,1.3,4.84,3.54,9.37,6.96,13.74-15.62-7.47-23.26-21.01-17.53-34.89-3.02,1.03-5.88,2.15-9.1.9,6.26-2.77,10.43-8.05,10.62-13.6-2.57,3.45-5.75,5.36-9.72,5.78,5.82-3.73,8.5-9.39,9.88-15.79.9-4.16,1.25-8.39,1.27-12.66,0-1.58-.67-2.02-2.04-2.14-3.83-.31-7.61-3.6-8.15-7.67,2.27,2.49,4.85,2.78,7.7,1.68-1.82-.19-3.49-.72-5.03-2.12,1.48-.55,2.98-.17,4.39-.58,3.34-.96,4.26-2.58,5.14-5.73.09-.34.26-.93-.36-.99-1.17-.11-.97-.68-.56-1.39.41-.71-.19-1.12-.5-1.64-1.37-2.28-1.36-2.96.09-4.93.07,1.47.56,2.72,1.68,3.39,1.47.89,1.84-1.64,3.34-1.19.54.65-.59.88-.5,1.62,3.03-1.64,5.94-.96,8.78.39.45.21.84.62,1.28.19.34-.33.02-.74-.04-1.14-.27-1.74-1.68-2.32-3.05-3.06,4.49-1,6.72,1.45,7.46,6.15.47,2.98,3.07,6.06,5.78,6.55-.67-1.41-1.3-2.74-1.94-4.07,4.81,4.79,10.49,6.69,17.75,5.5-3.05,2.57-6.02,3.46-9.31,3.73,4.61,2.23,14.41-.51,16.85-9.18,1.64,2.54.19,8.19-2.84,11.44-3.08,3.3-7.34,3.79-11.34,5.08h5.67c-2.76,2.08-5.64,2.35-8.45,2.55-5.99.42-10.86-2.29-15.13-6.12-3.03-2.71-6.58-3.15-10.21-2.46-3.39.64-5.65,6.21-4.19,9.47.77,1.71,1.85,3.21,3.23,4.48.46.42.64.56-.03,1.25-1.29,1.32-2.56,2.9-2.03,5.05.37.06.59.05.74-.29,1.83-4.15,5.66-4.89,9.63-3.5,1.14.4,2.25.95,3.19,1.8,1.78,1.61,3.99,2.21,6.31,2.47.55.06,1.04.18,1.57.37.66.24,1.46.2,1.43,1.13-.03.75-.61,1.13-1.27,1.48-1.87.98-3.82,1.74-5.89,2.19,1.69,1.18,6.99.37,9.75-1.71,3.43-2.58,2.69-6.05,1.91-9.59,3.05,1.96,3.76,5.11,4,8.47,1-.13.54-1.14,1.03-1.8.77,6.32-2.15,11.03-5.52,15.55,5.09-.48,11.88-7.24,11.27-15.4-1.2,2.79-1.85,5.86-4.1,8.14,2.54-6.65,3.49-12.91-4.11-17.61,6.78.11,12.3,2.43,17.33,6.23.09-.19.18-.38.27-.57-.79-.83-1.59-1.66-2.38-2.49,3.48,1.05,5.98,3.19,7.98,6.25,1.98,3.04,2.47,6.4,3.01,9.99,2.35-4.31.58-10.58-4.3-15.81q1.53.22,5.62,4.13c-1.87-5.32-5.94-8.51-11.34-10.92.92-.11,1.43-.12,1.92-.23,6.51-1.5,7.03-7.55,3.95-11.53-1.68-2.17-2.78-5.34-2.64-7.78,2.86,4.43,6.57,7.22,11.75,7.67-2.24-1.58-4.89-2.58-6.74-4.72.1-.1.2-.19.31-.29Z" fill="#feebb8"/><path d="m272.79,341.56c-.92.5-2.04-.31-2.6.81,4.14,1.15,8.51,1.53,12.25,3.9.31.19.82.07,1.23.08.35,0,.7-.03,1.04,0,7.17.86,13.77-.85,20.12-4.14,2.61-1.35,5.49-2.16,8.31-3.09,2.78-.92,5.65-1.34,8.41-2.27-5.8-.21-11.49.45-17.05,2.34,4.15-3.47,8.66-6.31,13.28-9.06-7.36,1.39-13.9,4.65-20.01,9.28,1.08-3.79,5.68-8.51,9.72-11,5.69-3.5,11.98-4.96,18.64-5.13,1.3-.03,1.68.53,1.9,1.51,1.17,5.21,2.08,10.45,2.21,15.82.16,6.28,0,12.48-2.06,18.53-1.11,3.25-2.61,6.25-4.49,9.12-.71,1.08-1.24.49-1.86.23-6.75-2.84-12.92-6.72-18.91-10.87-2.97-2.06-5.8-4.32-8.67-6.52-.45-.35-.82-.63-1.44-.59-2.61.15-5.22-.17-7.83.37-.92.19-1.55.57-2.06,1.19-3.55,4.31-7.88,7.62-12.83,10.15-3.48,1.78-7.25,2.61-11.05,3.36-.97.19-1.1-.46-1.31-1.13-1.45-4.61-2.44-9.32-3.15-14.1-.57-3.83-.97-7.65-.89-11.53.02-1.1.28-1.51,1.4-1.29,3.66.72,7.33,1.4,11,2.08,2.26.42,4.47,1,6.68,1.92Z" fill="#feebb8"/><path d="m339.14,365.41c2.85-4.29,5.78-8.53,8.54-12.87,5.77-9.07,10.81-18.51,14.29-28.71.61-1.78.87-3.69,1.27-5.54.02-.08-.14-.21-.34-.49-7.32,9.65-15.82,17.96-26.14,24.31,3.62-3.33,6.91-6.95,10.23-10.55,3.38-3.66,6.57-7.46,9.11-11.81-4.81,3.44-8.77,8.02-14.42,10.24,5.21-4.71,10.06-9.72,14.26-15.39-4.75,3.19-8.94,7.22-14.13,9.72-.11-.14-.22-.28-.34-.42,2.42-2.29,4.83-4.58,7.25-6.87-.12-.16-.24-.31-.36-.47-3,1.31-5.16,4.13-8.43,5.04,4.3-3.95,8.19-8.23,11.84-12.8-5.42,3.12-10.35,7.06-16.13,9.67,3.62-3.3,7.25-6.59,10.87-9.89-5.09,2.32-9.52,5.81-14.84,7.6,5.11-3.73,9.99-7.72,14.65-11.97,1.82-1.66,3.42-3.57,5.13-5.35,1.35-1.4,2.55-2.9,3.43-4.65,1.13-2.26-.77-6.4-3.71-6.84-2.1-.31-3.3.39-3.25,3.32.1,5.92-4.12,8.82-7.8,11.9-9.19,7.68-19.99,12.75-30.67,17.93-2.8,1.36-5.65,2.67-8.61,3.72-1.23.44-1.66,1.89-2.38,2.91-2.56,3.59-4.46,7.53-5.66,11.76-.31,1.09-.71,1.25-1.64,1.23-1.67-.05-3.34-.01-5.24-.01.95-1.29,2.28-1.61,3.44-2.13,1.36-.61,2.1-1.46,2.53-2.98,1.17-4.16,3.06-7.96,6.15-11.13,2.6-2.66,5.73-4.45,9.04-5.91,10.49-4.61,20.74-9.66,30.17-16.22,2.64-1.84,5.02-4.06,6.94-6.74,1.05-1.47,1.59-2.97,1.55-4.77-.06-2.41,2.02-5.7,4.13-6.4,2.51-.83,4.34.39,6.3,1.95,3.18,2.52,2.89,6.2,3.72,9.46,1.35,5.33,2.32,10.75,3.4,16.15.16.8.62.87,1.24,1.1,1.99.74,4.12.79,6.27,1.39-2.05,6.45-4.74,12.61-7.73,18.66-4.55,9.21-10.15,17.74-16.62,25.69-2.13,2.62-4.29,5.26-6.98,7.37-.1-.09-.21-.17-.34-.23Z" fill="#feebb8"/><path d="m298.17,250.43c-.28-.17-.56-.33-.85-.5.45-.3.86-.34,1.15.21-.1.1-.2.19-.31.29Z" fill="#feebb8"/><path d="m339.02,366.03c-.02.33-.22.45-.52.38-.07-.02-.11-.17-.16-.26.16-.09.33-.18.49-.27.07.05.13.09.19.15Z" fill="#feebb8"/><path d="m333.02,212.64c.17,0,.35.02.52.02-.11.11-.22.22-.33.32-.08-.11-.15-.22-.19-.35Z" fill="#feebb8"/><path d="m338.83,365.88c.1-.16.21-.31.31-.47.12.06.23.13.33.23-.04.25-.18.4-.45.39-.06-.05-.13-.1-.19-.15Z" fill="#feebb8"/><path d="m300.44,603.93l7.15,6.47,5.18-.04,7.15-6.36-3.9-3.04.13-1.88,1.87-.42,4.73,2.13,1.61-.25,7.92-3.17,1.82.53,3.38.86,40.33-.1,8.14.17,11.69.52,1.88,2.76-2.26,7.43-1.01.67-34.99-.05-5.19-.11-.96-.94.02-1.54-2.83-2.85-16.01-.2-2.33.95-10.99,9.36-5.48,4.66,6.84,6.45,5.17,4.88,5.32,5.4,4.93,7.67-1.72,5.02-4.85-.26-5.67-5.14-15.97-16.26-1.25-1.18-14.59,14.56-8.67,8.14-4.79.09-1.61-5.02,4.54-7.2,9.81-9.83,7.49-6.86-.14-.99-7.57-6.17-8.52-7.44-1.72-.65-16.29.05-2.8,2.27-.23.78-2.93,2.52-27.1-.14-10.24.18-2.17-1.45-1.97-6.89,2.02-2.66,37.81-.68,23.47.08,1.61-.47,6.87.06,3.68,2.41,1.11.09,4.16-1.95,2.67.07-.44,3-3.29,1.96h0Zm32.39,1.44l-.49-.06-.12.63-1.66.68-15.53,5.7-2.79,1.36v1.12s3.68,3.38,3.68,3.38l1.09.02,5.78-4.55,9.41-7.72.6-.56.4-.67,1.9-2.75-1.53-2.73.83,3.53-1.2,1.95-.38.68h0Zm-46.12-5.88l-1.03.99,1-1,1.36-.85-1.33.86h0Zm30.31,1.67l3.77,1.89-3.6-2.01-.22-1.26,1.4.17,2.44,1.19-2.3-1.51-1.68-.09.17,1.63h0Zm6.08,35.84l-1.39-.69,1.42.64.16.61,5.32,5.58,1.05-.83,5.87-1.31.33-1.18-1.56-1.77-4.97-1.97-6.23.93h0Zm-33.51-30.47l-.17.3.36.39,10.1,8.11,8.97,7.51,4.87,2.89,7.95.57-1.03-1.13-8.83-8.08-6.01-4.51-6.26-2.35-9.96-3.72h0Zm107.74.45l-2.44.92-3-.37-14.28-.27-5.05-.04-15.06.61,1.92,1.28-2.09.16v.19h37.6s2.4-2.49,2.4-2.49h0Zm-135.32,1.2l-.95-.44-6.75-.41-27.28.45-2.73.22-1.75-2.03.97,2.6,1.29.91h36.6s.59-1.3.59-1.3h0Zm45.04,18.71l-6.08.34-5.31,1.88-.45.31-5.25,4.99,7.98,1.2,1.06-.22,3.15-3.34,4.89-5.17h0Zm-40.73-24.84l-1.98,3.2-.25,3.44-.17.46.69-.39.02-1.26,3.48-3.4,10.54-.09h6.28s0-.47,0-.47h-3.15l2.82-4.18-56.02.54,41.9-.07-4.61,3.63.46-1.39h0Zm64.16,32.29l-6.67-6.19-1.16-.69-8.31-.59-.73.21.5.74,6.38,6.54,2.76,1.09,7.23-1.1h0Zm5.22-30.77l.06.24.55.03,17.12.27,1.71,1.03.62,2.09.6,2.47-2.41-8.17.62,1.9-3.31-1.4-.77-1.29.47-.97,7.67-.07,20.78-.03,1.9-.19h-45.65l2.82,3.37-.56.74h-2.22Zm-51.8,37.26l2.24.4,5.45,1.55.8-.17,4.27-4.61-.41-1.02-5.78-1.07-2.15.14-4.41,4.78h0Zm14.98-14.7l8.91-.65.95-.28-.48-.92-3.06-2.82-1.3.05-5,4.62h0Zm-69.79-20l30.65-.14-30.65.14h0Zm131.67-.03l31.16.56v-.56s-31.16,0-31.16,0h0Zm31.41-5.03l-30.78-.31,30.78.31h0Zm-134.62-.08h-29.46,29.46Zm-19.14,4.12h18.04-18.04Zm143.83.2v-.15s-13.4,0-13.4,0v.15s13.4,0,13.4,0h0Zm-49.47,41.5l5.68-.46-5.68.46h0Zm53.63-47.09h5.95-5.95Zm-82.77-.18l-5.63,1.95,5.63-1.95h0Zm94.48.92l-.02-.47h-4.75l2.4.43,2.37.05h0Zm-175.45-.51v.26s4.58,0,4.58,0v-.26s-4.58,0-4.58,0h0Zm67.33,44.62l-2.55,2.08,2.55-2.08h0Z" fill="#fdecb9"/><polygon points="289.97 644.58 287.42 646.66 289.97 644.58 289.97 644.58" fill="#1c1b1c"/><polyline points="333.21 604.69 333.21 604.69 332.81 605.37 332.83 605.37" fill="#1c1b1c"/><polygon points="282.03 599.75 280.33 602.84 278.34 603.49 278.25 602.75 279.85 600.35 282.03 599.75 282.03 599.75" fill="#fdecb9"/><polygon points="270.81 603.51 273.84 599.62 270.81 603.51 270.81 603.51" fill="#fdecb9"/><polygon points="338.25 599.81 340.43 600.13 342.21 603.04 341.92 603.55 340.21 603.04 338.25 599.81 338.25 599.81" fill="#fdecb9"/><polygon points="347 599.89 347.54 600.23 349.32 603 349.32 603.53 348.8 603.49 346.73 600.26 347 599.89 347 599.89" fill="#fdecb9"/><text transform="translate(152.98 574.58)" fill="#feebb8" font-family="Impact, Impact" font-size="72"><tspan x="0" y="0">BARBEARIA</tspan></text><path d="m421.16,175.12c81.69,21.39,137.8,65.65,137.8,116.78,0,72.05-111.39,130.46-248.79,130.46s-248.79-58.41-248.79-130.46c0-51.49,56.89-96.02,139.52-117.23" fill="none" stroke="#feebb8" stroke-miterlimit="10" stroke-width="10"/><text transform="translate(267.11 478.8)" fill="#feebb8" font-family="Lato-Light, Lato" font-size="46" font-weight="300" letter-spacing=".23em"><tspan x="0" y="0">PH</tspan></text><line x1="128.23" y1="466.68" x2="228.74" y2="466.68" fill="none" stroke="#feebb8" stroke-miterlimit="10"/><line x1="370.79" y1="466.68" x2="471.3" y2="466.68" fill="none" stroke="#feebb8" stroke-miterlimit="10"/></svg>